<svg xmlns="http://www.w3.org/2000/svg" viewBox="171.2 95.4 487.73 390.94"><path d="m363.1 266.9s0 1.9.1 1.5c.5-3.7 3.6-27.2 5.9-36.4 2.5-9.9 5.5-22.3 5.5-22.3l-1.4 12.3s-6.5 42.4-6.9 43.8c-.3 1.6-3.2 1.1-3.2 1.1" fill="#e5e723"/><path d="m330.1 351.1v-46.7l17.8-14.9 29.5-9 .3 61.3-21.2 5.1z" fill="#9dd3cc"/><g fill="#181715"><path d="m171.4 207.7c-.1-.2-.1-.4-.2-.5.1 0 .3-.1.4 0s.1.2.2.4c-.1-.1-.3 0-.4.1z" fill-rule="evenodd"/><path d="m656 365.1c-1.3.3-2.7.6-4 .9-3.3.7-6.5 1.5-9.8 2.2-1.9.4-3.7.8-5.6 1.3-2.5.6-5 1.3-7.5 1.9-3.1.8-6.1 1.8-9.2 2.6-2.4.6-4.9.8-7.4 1.3-1.3.2-2.7.5-4 .9-5 1.5-10.1 2.7-15.2 3.8-.2.1-2.2-.8-2-.9.5-.3 2.9-.4 3.5-.5 6.9-1.4 13.7-3.6 20.4-5.6 3.2-1 6.5-1.7 9.6-3 2.4-1 4.9-1.4 7.4-2 6.7-1.7 13.4-3.4 20.1-5.1.9-.2 1.8-.4 2.4-.5 1 0 1.9.7 2.1 1.5.2.5-.1 1-.8 1.2zm-80.3 12.4c.2-4.5.5-3.7-3.3-5.3-.4-.2-.9-.3-1.3-.5-1.2-.7-2.3-.7-3.7-.2-1.7.7-3.5.9-5.3 1.3-3.3.6-6.7 1.2-10.1 1.8-.3.1-.6.2-.9.2-2.3.5-2.5.4-2.5-2 0-4.6.1-9.1.1-13.7 0-1.8.6-3.1 2.4-3.6 2.3-.8 4.6-1.6 6.9-2.4 1.1-.4 2.3-.7 3.5-1.1 6.3-2.3 12.7-4.7 19-7 3.3-1.2 6.5-2.4 9.8-3.6 4.7-1.6 9.3-3.2 14-4.8 1.2-.4 2.5-.7 3.8-.9.9-.2 1.1 0 1 1-.2 2.3-.6 4.5-.8 6.8-.3 3.8-.7 7.6-.9 11.3-.2 5.1-.3 10.2-.4 15.2v1.1c.2 2.1.2 2.2-1.9 2.8-4.2 1.2-8.3 2.4-12.5 3.5-1.2.3-2.4.4-3.6.5-.9 0-1.3.4-1.3 1.2v2c0 4.3.1 8.5.1 12.8 0 1-.4 1.5-1.3 2.1-1.8 1.3-3.9 1.7-5.9 2.4-1.1.4-2.3.7-3.5 1-1.6.4-1.9.2-2-1.4 0-2.9 0-5.8 0-8.7zm-4.8-2.6c-3.1 1-6.2 2-9.4 2.8-5.1 1.2-10.2 2.5-15.1 4.3-2.5.9-5.1 1.5-7.6 2.3-1.4.4-2.7.9-4.1 1.3-2.7.8-5.4 1.6-8.1 2.2-2.9.6-5.8 1-8.7 1.4-.7.1-1.5 0-2.3.3-.9.3-1.8.3-2.6-.2-.7-.3-1.3-.7-1.9-1.1.6-.4 1.2-.8 1.9-1 4.6-1.4 9.3-2.8 13.9-4.2 1.2-.4 2.5-.6 3.7-1 2.5-.8 5-1.7 7.6-2.4 3.2-.8 6.4-1.4 9.5-2.1 1-.2 2.1-.5 3.1-.8 4.6-1.4 9.3-2.2 14-2.8 1.4-.2 2.8-.5 4.1-.7.8.1 1.4.2 2 .4.3.1.5.4.8.7-.3.1-.5.5-.8.6zm-61.3 38.9-.4-6.1c0-.4-.1-.8-.1-1.1-.1-4.2-.3-8.3-.4-12.5 0-1.1.1-2.3.3-3.4.1-.8 1-1 1.5-.4.6.7 1.4 1.4 1.4 2.5 0 .4.1.8.1 1.1-.1 5.5.7 11 1.1 16.5.1 1.3-.1 2.5-.9 3.6-.8 1.2-1.3 2.6-1.9 3.8-.1.2-.5.3-.7.3-.1 0-.3-.4-.3-.5.1-1.2.2-2.4.3-3.6m-1.9-26.9c-.7.2-.8.9-.7 1.5 0 3.6.1 7.3.5 10.9.3 2.3 0 4.7.1 7 .1 3 .3 5.9.4 8.9.1 1.3-.1 1.4-1.3 1.7-1 .3-2 .6-3 1-3.2 1.3-6.7 1.2-10 1.9-.8.2-1.6.3-2.5.4-1.2.2-1.6-.2-1.8-1.5 0-.2 0-.5 0-.7.1-3.1.2-6.2.3-9 .2-4.2.4-8.1.7-11.9.1-1.7-.7-2.7-1.8-3.7s-2-1.6-3.6-.7c-1.1.6-2.6.8-3.9 1-2.4.5-4.9 1-7.3 1.5-.8.2-1.6.3-2.5.4-.5.1-.9 0-.9-.7-.1-2.6-.4-5.3-.5-7.9-.1-2.3-.1-4.5-.2-6.8-.1-1.2.7-1.8 1.6-2.2 1.5-.7 3-1.4 4.6-1.9 3.3-1.1 6.6-2.2 9.9-3.3 7.2-2.4 14.4-4.8 21.6-7.3 4.2-1.5 8.4-3.1 12.6-4.6.3-.1.6-.2.9-.3 1.2-.3 1.4-.1 1.5 1.2.1 4 .2 8 .4 12.1.1 2.3.3 4.7.6 7 .1.7 0 1-.6 1.2-2.6 1.1-5.3 1.9-8 2.5-2.5.5-4.8 1.5-7.1 2.3zm-21 9c-2.1.6-4.2 1.2-6.4 1.6-5.1.9-10.3 1.6-15.5 2.6-3.6.7-7.2 1.9-10.8 2.6-4.7 1-9.4 1.7-14 2.7-3.3.7-6.7 1.4-10 2.2-3.5.8-11.9 3.1-12 3-.3-.1-1.2-.8-1.5-1 .2-.2.4-.4.7-.4 1.2-.3 2.3-.6 3.5-.9 1.8-.4 3.5-.8 5.3-1.2 1.4-.3 2.8-.7 4.2-1 6.4-1.5 12.8-3 19.3-4.5 1.4-.3 2.8-.6 4.2-.9 5.3-1 10.6-2 15.9-3.1 5.3-1 10.5-2.1 15.8-3.2.4-.1.9-.1 1.3 0 .3.1.5.5.6.8 0 .3-.4.6-.6.7zm-69.5 36.4c-.3-.1-.8.8-1.2 1.2-.6.9-1.1 1.8-1.7 2.7-.1-1-.2-2.1-.2-3.1 0-3.2-.2-15.2-.1-17.9 0-.9.2-1.8.4-2.7.1-.3.3-.7.6-.8.1-.1.6.2.7.4.6.8 1.4 1.6 1.4 2.8 0 1.4.3 2.7.3 4.1 0 3.4.3 6.8.8 10.2.1.7.1 1.4.2 2 0 .7.1 1.3-1.2 1.1zm-4.6-21.8c-.1 1.5-.3 3-.5 4.5-.1.8-.5 1.2-1.3 1.3-1.6.2-26.9 2.1-29.1 2.2-.8.1-1.3.5-1.4 1.3s-.2 1.7-.4 2.5c-.1.3-.5.8-.8.8-1.7.1-3.5.1-5.2.1-.8 0-1.1-.5-1-1.2 0-.2 0-.5 0-.7.8-3.6-.1-7.3 0-10.9.1-2.8.2-5.6.2-8.4.1-1.9.1-3.8.2-5.7.1-2.2.5-2.6 2.7-2.8 3.2-.3 6.5-.6 9.8-.8 4.5-.2 9.1-.3 13.6-.5 1.8-.1 3.6-.4 5.4-.7 4.7-.7 9.4-1.4 14.2-2 2.4-.3 4.8-.4 7.2-.5 1.4-.1 2.9.1 4.3.1.6 0 .8.3.9.8.2 4.1.5 8.2.6 12.3 0 1.6-.2 1.8-1.8 2.1-4.1.9-8.3 1.8-12.4 2.8-1.5.3-2.8 1-4.2 1.6-.8.5-.9 1.1-1 1.8zm-41.2-20.8c-.4-.6-.3-1 .3-1.2.5-.1 1-.2 1.6-.2 2.4-.3 4.8-.7 7.2-.9 1.7-.2 3.5-.2 5.2-.4l7.2-.9c2.9-.5 5.8-1.1 8.7-1.6 6.8-1.3 13.7-1.8 20.6-2.4h.9c1.3-.2 2.3.1 2.9 1.5.5.9 1.4 1.6 2.1 2.3.2.2.4.6.4.7-.2.3-.5.5-.9.6-2.3.3-4.7.4-7 .7-4 .5-8 1-12 1.5-2.1.3-4.2.8-6.3 1s-11.8.6-14.5.8c-3.8.2-7.6.4-11.4.6-1.7.1-3.1-.7-4.5-1.4-.1-.2-.3-.5-.5-.7zm.3 32.4c0 .4-.1.7-.2 1.1 0 .1-.2.2-.4.2-.1 0-.3-.1-.3-.2-.1-.5-.2-1-.2-1.6 0-2.8-.2-15-.1-18.2.1-3 0-6.1.1-9.1 0-.5 0-1.1.1-1.6 0-.1.2-.2.3-.2s.3.2.3.3c.1.8.2 1.7.2 2.5.1 2 .2 3.9.2 5.9 0 1.4 0 2.7-.1 4.1v10c0 2.2 0 4.5.1 6.8zm-1.8-35.5c-1.2 0-1.6.5-1.6 1.7.1 3.3.3 6.5.4 9.8.1 2.6 0 5.1-.1 7.7-.2 3.5.1 7.1.2 10.7.1 2 .2 4.1.3 6.1 0 .7-.3.9-.9 1-3 .2-6 .4-9.1.5-1.1 0-1.4-.3-1.5-1.5-.2-2.6-.6-5.2-.5-7.9.1-2.4-.2-4.8-.3-7.3-.2-3.7-.2-7.4-.6-11.1-.4-4 0-7.9.4-11.8.2-2.4.6-2.8 3-3.2 3.1-.4 6.2-.7 9.3-1.1 4.7-.6 9.3-1.1 14-1.7 1.8-.2 2-.1 2.2 1.6.2 1.3.2 2.6.3 3.9.1.8-.4 1.2-1.2 1.3-4.1.4-13.8 1.3-14.3 1.3zm-15.4 37.4c-2.7.1-5.4.2-8.2.3-1.5 0-1.7-.1-1.7-1.7-.3-4.8-.5-9.5-.7-14.3 0-.7.1-1.2.9-1.3 2.8-.4 5.7-.9 8.5-1.3 1.5-.2 1.7 0 1.8 1.5.2 3 .4 6 .5 9.1.1 2.1.2 4.2.2 6.3 0 1.2-.2 1.4-1.3 1.4zm-11.8-31.5c-1.3-.4-2.6-.6-4-.9-1.8-.4-1.8-.3-1.9-2.2-.5-9.5-1-18.9-1.4-28.4 0-.8.1-1.7 0-2.5-.1-1.5.7-2.2 2.1-2.6 2.6-.6 5.2-1.3 7.8-1.8 4.7-.8 9.4-1.4 14.2-2.2 7.1-1.2 14.2-2.5 21.3-3.6 3.3-.5 6.6-.8 9.9-1.2.7-.1 1.5 0 2.3.1.4.1.9.4 1 .7s-.1 1-.4 1.1c-1 .6-2 1-3.1 1.5-.4.2-.9.2-1.3.3-1.8.6-2.4 1.2-2.2 3.2.5 4.5 1 9 1.5 13.6.3 2.6.6 5.3 1 7.9.3 2.1.7 4.2 1 6.3.1.6.3 1.2.3 1.8 0 .3 0 .8-.1.8-.7.2-1.4.4-2.1.5-.6.1-1.1-.1-1.2-.8-.1-.6-.2-1.2-.2-1.8-.1-1.3 0-2.6-.2-3.9-.2-1.8-1.2-2.4-3-2.1-5.8 1.1-11.6 2.2-17.5 2.6-3.2.2-6.3.8-9.4 1.3-1.7.3-1.9.6-2 2.3-.2 3.3-.3 6.7-.5 9.8.1 3.2.3 6.3.3 9.3 0 1.7 0 1.7-1.7 2-2.5.4-5 .7-7.4 1-1.5.2-1.6.1-1.7-1.3-.2-2.9-.5-5.9 0-8.9.1-1-.2-1.5-1.4-1.9zm-3 32.5c-.3-.1-.6-.5-.7-.8-.3-.9-.7-1.9-.8-2.9-.5-4.8-1-9.7-1.3-14.5-.1-2 .1-4.1.3-6.1 0-.5.3-1 .6-1.4.8-.9 1.7-1.7 2.6-2.5.3-.3.8-.3 1.2-.4.1.4.3.8.3 1.2v3.2c0 .7.1 1.4 0 2-.5 4.9.1 9.8.5 14.8.1 1.5.4 3 .5 4.5.3 2-1.3 3.3-3.2 2.9zm-4-27.9c-1.8-.5-3.2-1-4.7-1.3-3.2-.7-6.4-1.2-9.5-2.1-4-1.2-7.8-2.8-11.8-4.2-6.9-2.4-13.6-5.2-20.6-7.1-3.7-1-7.3-2.5-10.9-3.9-.8-.3-1.7-.7-2.5-1.2-.4-.2-.5-.7-.1-.9 2.1-.9 4-2.3 6.6-1 2.9 1.5 6 2.4 9.1 3.6 1.5.6 3 1.2 4.4 1.7 2.4.9 4.8 1.9 7.3 2.6 4.1 1.2 8.2 2.1 12.3 3.3 4.9 1.4 9.8 2.5 14.6 4.3 2.7 1 5.6 1.5 8.3 2.2.8.2 1.5.6 2.2.9-.6.7-1.1 1.5-1.8 1.9-1 .7-2.1.9-2.9 1.2zm-5.9-39.4c0-.7.2-1.5.3-2.2.8.3 1.6.5 2.3.9.8.5 1.2 1.3 1.2 2.3.2 5.5.5 11 .7 16.5.1 1.6 0 3.2 0 4.8h.1c.1 2.9.3 5.7.4 8.6 0 2.1-.5 2.4-2.4 1.6-.4-.2-.7-.4-.7-1-.2-3.6-.3-7.3-.6-10.9-.6-6.9-1.3-13.7-1.3-20.6zm2-5.1c.4-.2.8-.4 1.3-.5 5.8-1.4 11.6-3.1 17.5-4.2 7.7-1.5 15.4-2.7 23.1-4 3.1-.5 6.2-.7 9.3-1.1 1.8-.2 3.6-.4 5.7-.6.3.1.9.1 1.4.4.7.5 1.4 1.1 2.1 1.6-.6.9-1.6.9-2.4 1-2.9.5-5.9.8-8.8 1.3-4.6.7-9.1 1.5-13.7 2.3-5.8.9-11.5 1.9-17.3 2.8-3.6.5-7.2.9-10.7 1.8-.8.2-1.6.2-2.5.4-.4.1-.8.3-1.3.4-.5.2-1.2.6-1.6.5-.8-.3-1.5-.9-2.3-1.4-.1 0 0-.6.2-.7zm23.5-60.4-8.5 3c-3.3 1.2-6.7 2.4-10.1 3.5-.2.1-.4.2-.6.2s-.4 0-.6 0c.1-.2.2-.4.4-.5 3-2.3 6-4.6 9-6.9l3-2.1c.8-.5 1.7-1 2.6-1.3 4-1.4 8-2.7 12.1-4 1.3-.4 2.6-.8 4-1.1 0 0 10.5-3.3 10.8-2.6s-3.1 1.8-3.1 1.8c-8.5 3.8-19 10-19 10zm-26.6 9.3c-.7.5-1.1 1-1.1 1.8-.1 2.7-.3 5.5-.3 8.2 0 1.7-.4 2.9-2.1 3.9-5.8 3.4-11.4 7.2-17.3 10.6-4.4 2.5-8.5 5.5-13 7.9-.3.1-.5.3-.8.4-.6.3-1 .3-1.2-.5-.3-1.4-.7-2.8-.8-4.2-.4-3.5-.6-7.1-.9-10.7-.2-3-.2-6.1-.6-9.1-.5-3.6-.2-7.3-.2-10.9 0-.8 0-1.7 0-2.5l-.7-12.7c0-.5-.1-1.1-.1-1.6 0-.6.3-.9.9-1 2-.6 4.1-1.2 6-1.8 1.7-.6 3.4-1.2 5.1-1.9 1-.4 1.7-.5 2.3.5.3.5.8.9 1.3 1.2 1.6 1 3.2 1.3 4.9.1.8-.6 1.7-1.1 2.5-1.7 1.1-.8 1.9-2 2.1-3.4.2-1.2.7-1.8 2.1-1.8 1.1 0 2.2-.6 3.3-.9.5-.1.9-.2 1.2.3 1 2.1 2.5 3.1 4.9 2.6 2.5-.5 4.6-1.9 5-4.4.4-2.1 1.7-3.1 3-4.2 1.8-1.6 3.7-3.1 5.6-4.6.2-.2.6-.4.8-.3.2 0 .3.4.4.7.1.2.1.4.1.7.1 5.4.2 10.8.4 16.2.1 3.2.1 6.4.5 9.5.3 2.3-.4 3.8-2.3 5.2-3.6 2.8-7.2 5.6-11 8.4zm-1.3 23.1c0 .7-.9 1.5-1.6 2.1-2.1 1.7-4.3 3.3-6.5 4.9-2.5 1.9-5.1 3.9-7.6 5.8-1.2.9-2.4 1.8-3.7 2.6-.9.6-1.3.4-1.3-.6-.1-1.5 0-3 0-4.5 0 0 .1-3 .1-4.5 0-.9.3-1.6 1.1-2.1.6-.4 1.2-.9 1.9-1.3 3.4-2.2 6.7-4.3 10.2-6.4 2.1-1.3 4.2-2.4 6.3-3.6.5-.3.9-.1 1 .5 0 2.3.2 4.7.1 7.1zm-36.5 8.3c-.2 0-.5.1-.6 0-1.2-1-2.5-2-3.5-3.2-.4-.4-.6-1.2-.6-1.9-.2-3.3-.3-6.7-.5-10-.2-4.3-.5-8.6-.7-12.9-.2-2.5-.2-5 1.2-7.3.8-1.4 1.3-2.9 1.9-4.4.2-.4.3-.9.2-1.3-.1-.3-.5-.6-.8-.7-.2-.1-.6.2-.7.4-.4.7-.6 1.5-.9 2.3 0 .1-.3.2-.4.2s-.3-.2-.3-.3c0-.6 0-1.2-.1-1.8-.1-2.7-.1-5.5-.2-8.2 0-.7.1-1.4.2-2 .2-1 .6-1.2 1.5-1.2.8.1 1.2.5 1.2 1.3.4 5.1.8 10.1 1.1 13.6-.2 7.3 0 13.1.6 18.8.5 5.1.7 10.1 1.1 15.2.1 1 .3 2 .4 2.9.1.3 0 .5-.1.5zm-3.5-55c-.2.2-.4.7-.7.7-.5 0-1-.3-1.3-.6-.2-.1-.2-.6-.2-.9 0-3 0-6 0-9 0-.3.1-.6.2-.9 0-.1.2-.2.3-.2.2 0 .4.1.5.3.1.1.1.3.1.4.4 3.3.7 6.6 1.1 10.2zm-4.3-10.8c.2 3.5.2 7 .3 10.5 0 6.8-.1 13.5 0 20.3 0 1.7-.5 2.7-2 3.4-4.6 2.1-8.7 5-12.9 7.7-4 2.5-7.8 5.2-11.8 7.8-2.5 1.7-3 1.5-3.4-1.5-.8-6.2-1.5-12.5-2.3-18.8-.3-2.6-.6-5.1-1-7.7-1.6-10.4-2.7-20.8-2.8-31.3-.1-5.4-.6-10.8-.9-16.1-.3-4.2-.5-8.5-.8-12.7-.2-3.9-.3-7.7-.6-11.6-.1-1.5.3-2.4 1.7-3.4 6.6-4.7 13.5-8.7 20.8-12.3 5.6-2.8 11.1-5.9 16.7-8.9 1.7-.9 3.5-1.8 5.3-2.7 4.1-2.1 8.2-4.2 12.4-6.2 5.7-2.7 11.5-5.2 17.2-7.7 13.2-5.7 26.5-11.1 39.6-17 7.9-3.5 16-6.2 24.1-9.1 3.4-1.2 6.7-2.4 9.8-4.3 1.4-.9 3.1-1.3 4.6-1.9.5-.2.7.1.7.5v4.3h-.1c-.2 5-.4 10-.5 15-.2 5.1-.3 10.2-.4 15.2-.2 6.3-.4 12.6-.6 18.9-.1 3.6-.2 7.3-.2 10.9 0 3.1 0 6.2.1 9.3.2 4.7.5 9.4.8 14.1 0 .6.1 1.2.1 1.8 0 .8-.3 1.3-1 1.6-3 1.8-6 3.6-9 5.3-.3.2-.5.3-.8.4-.5.2-.9 0-1.1-.5-.1-.3-.3-.7-.3-1.1-.6-4.9-1.3-9.8-1.8-14.7-.6-6-1.1-11.9-1.8-17.9-.5-4.4-1.2-8.9-1.7-13.3-.2-2.2-.2-4.4-.3-6.6-.1-2-.2-3.9-.3-5.9-.1-1.5-.6-1.9-2.1-1.5-2.1.5-4.2 1.1-6.3 1.9-2.9 1-5.8 2.1-8.8 3.2-.9.3-1.3.9-1.1 1.7 1.1 4.4.5 8.9 1.6 13.3.7 2.8.6 5.7.9 8.6.1 1.5.3 3 .5 4.5.3 3.4.5 6.8.8 10.2.4 4.1 2.3 16.3 1.5 18.4-.4 1.1-.6 2.2-.8 3.3-.5 2.9-1 5.8-1.4 8.8-.1.9-.5 1.6-1.2 2-2.1 1.3-4.3 2.6-6.4 3.9-.9.5-1.2.5-1.4-.6-.3-1.6-.6-3.1-.8-4.7-.7-4.9-1.5-9.8-2.1-14.7-.5-3.6-.8-7.2-1.1-10.9-.4-3.6-.6-7.3-1-10.9-.2-1.6-.6-1.9-2.2-1.7-.4 0-.8.1-1.1.2-3.6 1.4-7.2 2.7-10.9 4.1-.5.2-1 .2-1.5.4-1.5.3-2.2 1.1-1.9 2.5.3 2.1.8 4.2 1.1 6.3.5 2.9.9 5.9 1.3 8.8.1.8-.2 1.2-1 1.5-.6.2-1.1.7-1.7 1-1.2.8-2.4 1.6-3.6 2.3-.9.5-1.4.3-1.7-.7-.5-1.7-1.1-3.3-1.4-5-.7-4-1.3-8.1-1.9-12.1-.3-1.9-.4-3.8-.6-5.7-.1-1.3-.1-2.6-.2-3.8 0-1.3-.6-1.7-1.7-1.1-3.3 1.5-6.6 3-9.9 4.5-1.5.7-3.1 1.3-4.6 2.1-.8.4-1.2 0-1.3-.7-.1-1.3-.2-2.6-.2-3.9 0-.8 0-1.7-.2-2.5-.2-1.4-.7-1.7-2-1-3.2 1.5-6.4 3.1-9.6 4.6-1.3.6-2.6 1.1-4 1.6-.9.3-1.2.9-1.1 1.7.1 1 .3 2 .5 2.9.9 4.8 1.8 9.5 2.6 14.3.5 2.9.7 5.9 1.1 8.8.5 3.6 1 7.2 1.5 10.8.3 2 .2 2.1-1.7 2.9-.7.3-1.4.6-2 1.1-1.4 1-2.8 1.8-4.4 2.3-2.2.8-2.3 1.4-2.3 3.2zm98-23c-2.8 1.7-5.6 3.4-8.3 5.1-.6.4-1.3.7-2 1.1-.3.1-.6.2-.8.3 0-.4-.1-.7 0-1.1.1-.5.2-1 .3-1.6 1.3-6.7 1.9-13.5 3.5-20.2.9-3.9 1.8-7.9 2.5-11.8.6-3 1.2-6 1.1-9 0-.7.3-1.7-.7-1.9-1.1-.3-1.1.8-1.4 1.4-2.3 4.2-3.4 8.7-4.3 13.4-.2 1-.4 1.9-.7 2.9-.8 2.8-2 5.6-2.3 8.6 0 .2-.3.5-.4.7-.1-.2-.2-.4-.3-.6-.3-2.2-.8-4.4-.8-6.5-.1-5.3-.9-10.4-1.5-15.6-.6-5.8-1.3-11.6-1.9-17.4-.1-1.3-.2-2.6-.4-3.8-.1-.8.2-1.1.8-1.4 4-2 8.1-3.4 12.4-4.6.9-.3 1.2-.1 1.3 1 .2 2.2.5 4.4.5 6.6 0 3.9.6 7.7 1.1 11.5.4 3.2.6 6.5.9 9.7.4 4.1.9 8.1 1.3 12.2.3 2.6.5 5.3.9 7.9.4 3 .8 6 1.3 9 .2 2.1 0 2.8-2.1 4.1zm-13.6 7c-.1.7-.3 1.5-.3 2.3 0 1.9-.9 3.5-1.4 5.2 0 .2-.3.2-.5.3-.1-.2-.2-.4-.2-.6 0-.5.5-7.3 1-10.2 1.1-6.2 2.2-12.4 3.4-18.6.5-2.4 1.3-4.7 1.9-7 .8-3 1.6-6 2.5-9 .4-1.2 1-2.4 1.5-3.5.6 1.3.1 2.6-.2 3.9-.6 2.8-1.5 5.6-2.2 8.4-.5 1.8-.8 3.7-1.1 5.6-.4 2-.9 4-1.2 6-.3 1.5-.4 3-.7 4.5-.8 4.3-1.6 8.5-2.5 12.7zm-2.8 17.1c0 .2-.3.4-.5.4s-.4-.3-.4-.4c-.1-1.9-.1-3.8.8-5.5.1-.2.4-.3.5-.3s.3.3.3.5c0 .4 0 .8-.1 1.1.1 0-.3 2.8-.6 4.2zm-3.7-5.6c-3.8 2.2-7.5 4.5-11.3 6.7-1.8 1-3.6 1.9-5.4 2.9-.4.2-.7.2-.8-.4-.1-1 0-1.8.9-2.4 1.2-.9 2.4-1.8 3.7-2.6 4.2-2.8 8.5-5.5 12.8-8.3.4-.2.7-.5 1.1-.7.9-.5 1.2-.3 1.2.7 0 .2 0 .3-.1.7.3 1.5-.7 2.6-2.1 3.4zm-61.5-3.4c5.9-2.5 11.5-5.6 17-8.6 3.1-1.7 6.2-3.1 9.4-4.7 2.1-1 4.2-2.1 6.3-3.1.5-.3 1.1-.4 1.4-.5.5 0 .6 0 .8.1.9.3 1.7.5 2.6.8-.4.9-1.3 1.1-2 1.5-3.6 2-7.4 3.4-11.3 4.7-3.4 1.2-6.6 2.6-9.9 3.9-6.5 2.7-12.5 6.5-18.9 9.4-1.4.7-2.8 1.4-4.3 2.1-1.1.5-2.5.3-2.2 0 .3-.5.9-1 1.5-1.3 3.1-1.4 6.4-2.8 9.6-4.3zm7-36.3c3.9-2.2 8.1-3.8 12.2-5.4 1.1-.4 1.4-.3 1.6.8.3 1.6.7 3.3.8 4.9.3 4.7 1 9.3 1.8 14 .2.9.5 1.8.7 2.6.2 1 .5 2.1.6 3.1.2 1.6 0 1.6-1.4 2.4-3.5 1.8-6.9 3.8-10.4 5.6-2.6 1.4-2.5 1.8-3.4-1.4-.5-1.6-.6-3.3-.8-4.9-.4-3-.8-6-1.2-9-.5-3.5-1.1-7-1.7-10.5-.2-1.1.4-1.7 1.2-2.2zm-.2 20.5c.4 2.9.8 5.8 1.4 8.7.1.7.1 1.1-.6 1.5-3.5 1.7-7.1 3.5-10.6 5.2-1 .5-1.4.2-1.6-.8-.3-1.6-.6-3.3-.8-4.9-.9-6.6-1.8-13.2-2.7-19.8-.5-3.1-1.1-6.3-1.7-9.4-.4-2.1-.3-2.4 1.7-3.4 2.8-1.4 5.7-2.8 8.6-4.2.6-.3 1.3-.5 2-.8.2.2.5.4.6.6.2.7.3 1.3.4 2 .2 4.7 1.2 9.3 2 13.9.3 3.8.7 7.6 1.3 11.4zm6.3 32.3c-.7.7-1.5 1.3-2.3 1.9-2.2 1.7-4.7.4-5.5-2.2-.1-.4-.1-.7-.1-1 0-2.2.9-3.6 3.1-4.5 1.7-.8 3.2-.6 4.6.7 1.5 1.6 1.7 3.6.2 5.1zm17.4-5.3c-1.1 1.4-2.6 2.3-4.4 2.4-1.1 0-1.9-.6-2.3-1.5-1.4-2.8 1.3-6.8 4.4-6.6.9.1 1.8.4 2.1 1.4.2.7.6 1.4.7 2.2 0 .7-.1 1.6-.5 2.1zm-8.6-2.8c-.8 2.3-3 3.8-5.3 3.7-.4 0-.8-.3-1.2-.6-.6-.5-1.1-1.2-1.8-1.7-2.1-1.5-4.2-1.6-6.4-.1-.6.4-1.2 1-1.8 1.4-1 .6-1.5 1.5-1.6 2.6-.2 2.1-1.6 3.1-3.5 3.6-2 .6-3.8 1.4-5.8 2.1-.2.1-.4.2-.6.2-4.3 1.3-4.1.4-4.4-2.8-.1-1-.1-2-.2-3-.1-.9-.2-1.8-.2-2.2 0-.7 0-1 0-1.2-.2-1.5.4-2.4 1.8-3 2.7-1.2 5.4-2.4 8.1-3.7 1.9-.9 3.7-2 5.6-3 2.8-1.4 5.5-2.9 8.4-4.1 5.5-2.3 11.1-4.4 16.7-6.7 2.9-1.2 5.7-2.5 8.5-3.8 2-.9 2.3-.7 2.4 1.5.2 3 .4 6 .8 9 .1 1.2-.2 2.2-.9 3.1-1.8 2.3-4.1 3.8-6.5 5.3-.8.5-1.6.5-2.5-.1-3.7-2.3-8.2-.6-9.6 3.5zm21.7-.6c-.1-1.1-.3-6-.4-7.2-.4-4.3-.7-8.6-1.1-12.9-.1-.9-.1-1.8-.2-2.7-.2-1.7-.9-2.7-2.7-2.8-1.7-.1-2.3-1-2.5-2.4-.2-1.6-.4-3.2-.7-4.7-.4-2.2-.9-4.5-1.2-6.7-.2-1.2-.2-2.4-.3-3.6 0-.7.3-1.1.9-1.4 3.6-1.7 7.3-3.3 11.3-4.1 1.8-.3 1.8-.3 1.9 1.4.3 4.6.5 9.2 1 13.8.6 5.5 1.5 11 2.3 16.4.5 3.2 1 6.4 1.6 9.6.2 1.3-.3 2.1-1.3 2.8-2.5 1.6-5 3.2-7.5 4.7-.8.7-1 .7-1.1-.2zm35.9 16c0 2.1-.1 4.1-.2 6.2-.1 2.5-.2 5-.3 7.5h.1c0 4.6-.3 9.1.1 13.7.4 5.5.2 11.1.2 16.6 0 4.3.3 8.5.4 12.7 0 1.6 0 1.6-1.5 1.9-5.8 1-11.7 1.9-17.5 2.9-.3 0-.6.1-.9.2-.7.1-1.2-.2-1.3-1-.1-1.4-.2-2.7-.3-4.1-.2-5.2-.5-10.3-.7-15.5-.1-3.6 0-7.1.1-10.7 0-1.4.1-2.9.1-4.3-.2-4.6-.7-11.5-.7-13.8s.1-2 1.5-2.7c1.3-.7.7-.3.7-.3s17.5-9.1 18.9-10c1.3-1 1.3.2 1.3.7zm47.3-10.1c2.7-.1 5.5-.4 8.2-.4 1.3 0 1.4.1 1.5 1.4.5 6.2 1 12.4 1.6 18.6v.5c.2.6.2 1.5 1.1 1.5.9-.1.9-.9.9-1.6 0-2.3.1-2.5 2.2-3.3 1.8-.7 3.6-1.2 5.4-1.8 1.2-.4 1.5-.8 1.3-2-.7-3.6-.8-7.2-.7-10.9.1-2.9.1-2.9 2.9-2.8 1.8 0 3.6.1 5.4.1 1.6.1 2 .4 2.3 2 .4 2.4.7 4.8 1 7.2.3 2.2-.4 4-2.4 5.2-.4.2-.8.5-1 .9-.1.3 0 .8.2 1.2.1.1.7.1 1-.1 1.3-.9 2.5-1.9 3.8-2.9.8-.7.9-1.5.7-2.4-.6-2.9-1-5.8-1.5-8.7-.1-.4 0-.8 0-1.1 0-.5.2-.9.8-.9 1.1 0 2.3 0 3.4.2.4 0 .7.4 1.1.7.2.1.2.4.3.6.3.6.5 1.5 1.3 1.4 1-.2.4-1.1.4-1.7 0-.2 0-.5.1-.7 0-.1.2-.2.4-.2.1 0 .4.1.4.1.1.5.3 1 .3 1.5 0 2 0 3.9.1 5.9 0 1.5.2 1.9 1.7 2.3 1.2.3 2.5.6 3.8.9.3.1.7.3 1 .5-.3.3-.5.7-.9.9-1.2.9-2.4 1.8-3.7 2.6-.7.5-1 1-.7 1.9.2.7.3 1.5.2 2.2-.3 2.9-.8 5.9-1.1 8.8-.1 1.1-.2 2.3-.2 3.4.1 1.7.4 3.5-.1 5.2-.1.3 0 .8.1 1.1.1.2.5.4.7.4s.6-.3.6-.5c.2-1.4.3-2.9.4-4.3.3-4.5.6-8.9 1-13.4.3-2.8.6-2.9 3.3-2.3 1.5.3 2.2 1.2 2.5 2.6.2 1 .3 2 .3 2.9.1 3.2 0 6.4.1 9.6.1 1.8-.5 3.3-2.2 4.1-.4.2-.8.5-1 .9-.3.4-.2.9.3 1.2.3.1.9.2 1 0 .8-1.1 1.9-1.9 3.2-2.5.8-.4.8-1.2.7-2-.2-1.4-.5-2.9-.6-4.3-.1-3.2 0-6.4 0-9.6 0-1.2.3-1.6 1.5-1.5 2 .2 4.1.6 6.1.9.3 0 .7.3.7.4.1 2 2.1 3.2 2.1 5.2 0 1.1.3 2.3.4 3.4.1 2.9.1 5.8.2 8.7 0 1.2-.3 2-1.5 2.5-.8.3-1.6.8-2.4 1.3-.3.2-.2.8-.3 1.2.4.1.9.4 1.2.2 1.5-.7 2.9-1.6 4.4-2.4.7-.4.8-1 .8-1.7-.3-2.9-.5-5.7-.7-8.6-.1-2.6-.4-5.1-1.2-7.6-.4-1.3-.1-1.6 1.1-1.4 1.4.2 2.8.6 4.2.9.9.2 1.2.7 1.2 1.6-.1 2.7-.2 5.5-.2 8.2-.1 2.1-.2 4.2-.2 6.4 0 .3 0 .6.1.9.1.2.5.5.7.5.3-.1.7-.3.8-.6.1-.2 0-.6 0-.9 0-1.1-.1-2.1-.1-3.2.2-3.1.4-6.2.6-9.3 0-.6.2-1.2.3-1.8s.3-1 1-.9c.6.1 1.3.3 1.2 1-.1 2.8 0 9.7 0 10.4-.1.8.3 1.3.9 1.7 1.5 1.1 3 2.3 4.5 3.5.7.6 1.2 1.3 1.7 2-.8.4-1.6.8-2.4 1.1-.7.2-1.5.3-2.2.5-1.5.3-1.9.9-1.5 2.4.7 3.1 1 6.3.9 9.5 0 1.7-.1 1.7-1.7 2.2-1.2.3-2.4.6-3.5 1-.8.3-1.5.7-2.2 1.1-1 .6-1.6 1.6-1.4 2.9.1.5-.1 1.1 0 1.6.5 5.9 1 11.8 1.4 17.7.1 1.7.1 3.3.1 5 0 .8-.2 1.4-1 1.6-4.2.8-7.8 3.3-11.9 4.4-.2.1-.4.2-.6.3-1 .3-1.2.2-1.3-.9-.1-3.1-.2-6.2-.2-9.3s.3-6.2.4-9.3c.1-1.2-.3-2-1.4-2.6-1.4-.8-2.7-1.7-4.1-2.5-.5-.2-1.2-.3-1.7-.1-4 1.6-8 3.2-12.1 4.8-2 .8-4.1 1.6-6.2 2.3-4.4 1.5-8.2 4-12.2 6-.3.2-.6.4-1 .6-1.5.7-1.6.6-1.7-1-.1-2-.4-3.9-.4-5.9-.1-3.6-.1-7.3-.1-10.9 0-2.8-.3-3-3-3.9s-4.8-.5-7.3.8c-3 1.6-6.3 2.5-9.5 3.9-4.3 1.9-8.5 4-12.8 6-3.4 1.5-6.8 2.9-10.2 4.4-.7.3-1.1 0-1.1-.7.2-1.9-4.3-7-6.4-6.7-1.8.3-5.4.8-7.2.9-1.2.1-1.3-.1-1.4-1.3-.4-6.8-.5-13.6-.5-20.5 0-6.3-.2-12.6-.3-18.9 0-.1 0-.2 0-.2 0-1.6-.1-3.2 1.8-4.1 1.7-.9 3.2-2.2 4.9-3.3 6.6-4.1 13.3-7.8 19.6-12.4 3.2-2.4 6.5-4.7 9.8-7 .5-.4 1.3-.5 1.9-.5m20.8-.5c1.7-.1 3.5-.2 5.2-.1 1.3 0 1.5.1 1.5 1.4.1 2 0 3.9 0 5.9v4.8c0 1.2-.4 2-1.6 2.5-1.4.5-2.8 1.2-4.2 1.7-.9.3-1.3.1-1.5-.8-.2-1-.3-2.1-.3-3.1-.3-3.4-.6-6.8-.9-10.2 0-1.8.1-1.9 1.8-2.1zm2.7-2.5c1-.1 2.1-.2 3.1-.3.1 0 .2.3.4.4-.1.1-.2.2-.3.2-1 0-2 0-2.5 0s-.6 0-.6 0c-.9 0-1.8-.1-2.7-.1.8.1 1.7-.1 2.6-.2zm22.1-3.1c-.5.2-1.2.3-1.4.3-.5 0-.7 0-.8 0-.3-.1-.5-.2-.7-.3.1-.2.1-.5.3-.6.6-.5 1.2-.9 1.8-1.3.4-.2.8-.9 1.4-.3.4.6.1 2-.6 2.2zm-4.4 2.3c.8-.1 1.6-.2 2.5-.3.5 0 1-.1 1.6-.1.8 0 1 .5 1 1.2s-.4 1-1 .9c-1.3-.1-2.7-.3-4-.5-.2 0-.5-.4-.5-.6-.1-.2.2-.5.4-.6zm-3.2-1.5c-1 .1-2 0-2.9 0v.1c-.8 0-1.7 0-2.5 0-.3 0-.5-.2-.8-.3.1-.3.2-.8.5-.9 1-.6 2-1.5 3.1-1.7 2-.4 4-.3 6.1-.5.1 0 .3.1.4.2 0 .1 0 .3-.1.4-.7.8-1.4 1.5-2.2 2.2-.5.4-1.1.5-1.6.5zm-13.9.6c-.4 0-.8 0-1.1 0s-.5-.2-.8-.3c.2-.2.3-.5.5-.7 1.9-1.8 4.1-2.4 6.6-2.2.2 0 .3.2.5.4 0 .1-.1.3-.2.4-1.6 1.2-3.1 2.9-5.5 2.4zm5.9 1.4c1.2-.2 2.4-.3 3.6-.4 1.1 0 2.2 0 3.4.1.3 0 .6.1.9.2.2.1.3.3.3.5 0 .1-.3.4-.5.4-1 0-1.9 0-2.9 0-.4 0-.8 0-1.3-.1-1 0-2.2 0-3.4 0-.2 0-.3-.2-.5-.3.1-.2.2-.4.4-.4zm18.8-.7c.3.4.6.7.6 1s-.3.5-.5.8c-.2-.3-.5-.6-.6-1-.1-.2.2-.4.5-.8zm-.1-4.2c.2.1.5.3.6.5s.1.4.1.9c-.1.1-.4.4-.6.6-.2-.3-.4-.5-.6-.8-.1-.2 0-.5.1-.7.1-.3.3-.6.4-.5zm.4-7.6v.1c.1 1.2.2 2.5.2 3.7 0 .3-.4.5-.5.8-.1-.2-.4-.5-.4-.7.3-1.3-.1-2.7.7-3.8 0 0 0 0 0-.1-.1.1-.1.1 0 0m-14.4 5.4c-.4 0-.7.2-1.1.2-.5.1-1 .3-1.5.3-2.8.1-5.6.1-8.4.1-1 0-2-.2-2.9-.3-2.2-.3-2.2-.3-2.3-2.6-.1-1.6-.1-3.2 0-4.8 0-.9.3-1 1.2-.6 1.4.7 2.7 1.3 4.1 1.9.4.2.9.3 1.3.3.2 0 .6-.2.7-.4s0-.7-.1-.8c-.5-.4-1-.6-1.5-.9-1.3-.6-2.6-1.2-3.9-1.9-1.4-.8-2-1.9-1.8-3.6.4-3.9.8-7.8.8-11.8.1-5.7 0-11.4.1-17.1 0-2.1 0-4.3.1-6.4s.8-2.8 2.9-2.7c4 .3 7.8-.9 11.8-.8 5.5 0 10.9-1.2 16.3-1.6 4-.3 8-.6 12-.8 3.7-.2 7.4-.5 11.1-.7h1.1c2.6.1 3-.5 2.9 2.9-.1 4-.5 8-.7 12-.1 1.6 0 3.2 0 4.8 0 .4.1.8.1 1.1-.1 2.5-.4 2.8-2.8 2.3-5.9-1.2-11.8-1.8-17.8-2.5-1.3-.1-2.7-.6-4-.9-1.2-.3-1.4-.2-1.7 1-.1.4-.2.7-.2 1.1-.2 3-.4 6-.6 9.1-.1 1.3-.1 2.6 0 3.9.1 1.9-.1 3.8-.8 5.6-1.5 3.9-2.3 8-2.6 12.2-.1 1.7-.3 1.9-2.1 2-1.7 0-3.3 0-5 0m39.3-38.2c.5-4.2.5-8.3.6-12.5 0-.6.1-1.2 0-1.8 0-.8.4-1.2 1.1-1.5 1.3-.5 1.9 0 1.8 1.3 0 1.2-.1 3.6-.1 3.6-.1 3.4-.3 6.8-.4 10.2 0 .7 0 1.3-1.1 1.3-.8 0-.9.5-.6 1.3.4.9.9 1.7 1.3 2.6.2.4.3.9.4 1.3.2 1.8-.5 2.4-2.2 1.7-.7-.3-.8-.9-.8-1.5 0-1.9-.3-3.9 0-6zm-17.7 63.8c-.7.6-1.5 1-2.1 1.4-1.6-.4-2.9-.7-4.2-1.1-.1 0-.2-.6-.1-.7 1.3-.9 2.5-2.1 4.1-2.3.6-.1 1.2-.1 1.7.1.8.2 1.9.6 2.1 1.1.4.8-.9 1-1.5 1.5zm1.7 1.2c1.2-1.3 2.4-2.2 4.3-1.5 1.5.5 3.1.6 4.6.9 1 .2 1.1.6.4 1.4-.6.7-1 1.8-2.3 1.4-2.2-.4-4.5-.7-6.7-1.1-.6-.1-.8-.6-.3-1.1zm16.1 3.1c-.2.7-.8.9-1.4.7-.7-.2-1.5-.3-2.2-.5-.6-.2-1.1-.4-1.7-.6.4-.5.7-1.1 1.2-1.6.8-.7 3.2-.7 4.1 0 .5.7.2 1.3 0 2zm3.9-.7c-.1.6-.2 1.2-.4 1.7s-.6.7-1.1.5c-.3-.2-.6-.6-.7-1 0-.5.2-1.1.4-1.5.2-.3.7-.5 1-.7.4.4.6.7.8 1zm7.9-55.4c3.9 1 7.8 2 11.7 3.1 2 .5 2 .5 1.9 2.6-.2 2.8-.3 5.6-.4 8.4-.2 4.9-.3 9.9-.5 14.8 0 .5-.1.9-.1 1.4 0 .7-.5.7-.9.4-1.4-.8-2.7-1.7-4.1-2.5-1.1-.7-2.2-1.3-3.3-1.9-1.4-.8-2.8-1.5-4.1-2.4-.8-.5-1.4-.8-2.5-.3-1.3.7-2.9.9-4.3 1.4-1.9.6-1.9.9-1.9 2.8.1 2.6-.1 5.3-.1 7.9 0 2 .1 3.9.1 5.9.1 2 .2 4.1.2 6.1 0 1.7-1.2 2.9-2.2 4.1-.2.3-1 .3-1.5.2-1.3-.2-2.7-.6-4-.8-1.6-.3-3.3-.6-4.9-1-1-.2-2-.3-3-1-.7-.5-1.7-.6-2.6-.9-3.5-1.1-7.1-2.2-10.6-3.2-1.1-.3-1.6-.8-1.7-2-.2-2.5-.4-11.2-.4-12.7-.1-4.2 0-8.5.1-12.8.2-6.7.6-13.3.9-20 0-.1 0-.2 0-.2.2-3.4.2-3.3 3.5-3.1 8.3.5 16.4 2.2 24.6 3.5 1 .2 2.1.2 3.2.4 2.2.6 4.6 1.2 6.9 1.8zm14.3 29.2c.9-4.6.6-9.2.7-13.8.1-3.6.3-7.3.4-10.9.1-1.3.3-1.4 1.6-1.3.9.1 1.8.2 2.7.4 1.5.2 1.5.2 1.5 1.6 0 3.4.2 16.9.2 20.3 0 .3-.2.5-.2.8-.3-.1-.6-.2-.7-.4-.8-1-1.5-2.1-2.3-3.1-.3-.5-.8-.8-1.3-.4-.2.2-.3.9-.1 1.2.6 1 1.3 2 2 3 2 2.8 3.1 5.9 2.6 9.4-.1.9-.4 1.2-1.1.7-1.6-1.1-3.2-2.1-4.6-3.3-1.3-1.1-1.7-2.7-1.4-4.2zm7.2 10.6c3.7 1.8 6.9 4.4 10.2 6.8 1.7 1.2 3.4 2.6 5 3.9.2.2.3.5.4.7-.2.1-.4.2-.6.2-.4 0-.8 0-1.5 0-1.5.5-2.8-.7-4-1.6-3.3-2.4-6.8-4.3-10.3-6.2-3.1-1.7-6.2-3.4-9.3-5.3-1.9-1.1-3.6-2.5-5.4-3.7-3.3-2.3-6.6-4.6-9.9-6.9-.3-.2-.6-.4-.9-.7-.1-.1 0-.7.1-.7 1.4-.6 2.6-1.3 4.2-.3 2.8 1.8 5.9 3.1 8.7 4.9 3.6 2.3 7.1 4.9 10.7 7.3.9.5 1.7 1.2 2.6 1.6zm12.2 1.9c.1-2.7.5-5.3.6-7.9.2-5.6.2-11.2.4-16.8.1-2.7.2-2.8 2.7-1.7 1.2.5 2.4.9 3.6 1.4 2.4 1 4.7 2.1 7.1 3.1 4.5 1.9 8.9 3.8 13.4 5.7 5 2.1 10 4.1 15 6.1 1.3.5 1.8 1.6 1.8 2.9 0 1.4 0 2.7-.1 4.1-.2 3-.5 6.1-.7 9.1-.5 6.7-1.1 13.5-1.5 20.2-.3 4.6-.6 9.2-.9 13.8 0 .7-.1 1.4-.2 2 0 .1-.2.4-.2.4-.2 0-.5-.1-.6-.2-2.3-4-4.7-8-7-11.9-.9-1.5-1.9-2.9-2.8-4.3-1.3-1.9-2.7-3.9-4.1-5.7-1.3-1.7-2.7-3.3-4-4.9-.5-.6-1.1-.7-1.8-.6-1.8.3-3.6.5-5.4.7-1 .1-1.4.9-1.6 1.7s-.3 1.6-.4 2.5c-.7 5.3-1.7 10.5-1.8 15.8 0 1-.3 1.9-.4 2.9-.1.7.3 1 .9 1.1s1-.1 1.1-.8c.1-2.1.2-4.2.4-6.3.5-4.1 1.2-8.3 1.8-12.4 0-.2.2-.4.2-.6.2.2.5.3.7.5 3.7 5.1 7.6 10.1 10.8 15.5 2.2 3.6 4.2 7.4 6.2 11.1.3.5.6 1.1.9 1.6 1.6 2.6 3.2 5.1 4.8 7.7.6 1 .6 1.2-.6 1.7-3.5 1.4-7 2.8-10.6 4.1-3.4 1.3-6.8 2.5-10.2 3.8-.4.1-.7.3-1.1.4-1 .3-1.5 0-1.5-1-.3-3.6-.9-17.6-1.2-20.9-.2-1.9-1.3-3-3.2-3.3-.7-.1-1.5-.4-2.2-.6-2-.5-2.1-.5-2-2.4.1-2.2-.2-4.4-.8-6.5-.5-2-.7-4-.6-6.1.1-2.4.2-4.9.3-7.3.2-2 .5-3.9.8-5.9.2-1.5.1-2.9-1.4-3.8-.5-.3-1-.7-1.5-1.1-3.2-2.9-3.3-3-3.1-6.9zm5.6-28.8c.1-.1.3 0 .7-.1.3.1.8.2 1.3.4 2.3.9 4.7 1.7 7 2.6 3.5 1.4 7 2.8 10.5 4.4 1.9.9 3.7 2 5.6 3 .7.4 1.4.9 2.2 1.2 3.6 1.5 7.2 2.9 10.8 4.4 1.6.7 3.1 1.6 4.6 2.4.2.1.3.4.4.7-.3.1-.6.2-.8.2-.4-.1-.9-.3-1.3-.5-2.5-1.2-4.9-2.4-7.4-3.5-2.9-1.2-5.8-2.3-8.7-3.5-3.6-1.4-7.2-2.8-10.8-4.3-2.6-1.1-5-2.5-7.5-3.7-1-.5-2.1-.9-3.1-1.3-1.2-.5-2.4-.8-3.6-1.3-.2-.1-.4-.4-.6-.6.2-.2.4-.4.7-.5zm25.2-1.8c.2-1.8.2-3.6.3-5.5.1-1 .4-1.2 1.3-.9 6.9 1.8 13.8 3.7 20.6 5.7 3.7 1.1 7.5 1.8 11.3 2.7s7.6 2 11.5 2.9c1.6.4 3.3.6 4.9.8 1.8.2 2 .4 1.8 2.3-.5 4-.8 8-.8 12 0 4.7-.4 9.4-.6 14.1-.2 6.4-.4 12.9-.5 19.3 0 .2-.2.5-.3.7-.2-.2-.4-.4-.6-.6-3.3-5.1-6.6-10.2-9.5-15.5-.5-1-1.6-2.4-2.3-2.2-1.2.3-4.4 1.2-6 1.5-1.9.4-2.6.7-2.5 2.7.2 2.9.2 5.9.1 8.9-.2 5.9-.5 11.8-.8 17.7-.1 1.3-.1 2.6-.3 3.9-.5 2.9-.7 5.7-.6 8.6 0 1.7 0 1.7-1.6 2.2-2.2.6-4.4 1.3-6.5 2-1.6.5-2.1.2-2.2-1.5-.1-.9 0-1.8 0-3.2.3-3.6.5-7.6.3-11.7-.1-3 .3-6 .5-9.1.1-1.7-.1-3.3 0-5 .1-2 .2-3.9.4-5.9.8-7.6 1.6-15.2 3.1-22.8 0-.2.1-.5.1-.7.7-3.2.7-3.2-2.2-4.7-4.2-2.2-8.6-3.9-13-5.5-1.3-.5-2.7-1.1-4-1.7-1-.4-1.6-1.2-1.6-2.2.1-3.1-.7-6.1-.3-9.3zm4-9.2c.6-.2 1.2-.2 1.8-.3.3 0 .6.1.9.2 5.2 1 10.4 2 15.5 3.7 4.4 1.5 9 2.5 13.6 3.7 1.9.5 3.7 1.2 5.6 1.7 3 .8 6 1.5 9 2.2 1 .2 1.9.5 2.9.7.1 0 .2.2.2.3s-.2.2-.3.3c-1.5.7-3 1-4.8.6-4.3-1.2-8.7-2.1-13-3.1-2.1-.5-4.1-1-6.2-1.5-4.9-1.3-9.9-2.4-14.7-4.1-2.4-.9-5-1.3-7.5-1.9-1.1-.3-2.2-.5-3.3-.9-.5-.2-.9-.5-1.3-.8.6-.3 1.1-.6 1.6-.8zm52.8 13.4c.3.2.6.7.6 1.1.1 1.3.1 2.6 0 3.9-.1 2.8-.2 5.6-.4 8.4-.2 2.4-.5 4.8-.7 7.2-.1 1.1-.2 2.3-.3 3.4-.1 1-.1 1.9-1.4 2.2-.8.2-1 1.1-.8 1.9.4 3.1.8 6.2 1.2 9.3.3 2.7.3 5.9.2 5.9-.1 5.1-.1 10.1-.2 15.2v.7c0 .2-.2.3-.3.5-.1-.1-.3-.2-.3-.3-1.3-2.1-2.6-4.1-2.5-6.9.2-3.5-.3-10.5-.3-10.6 0-.8.2-1.7.2-2.6.2-3.9.4-7.9.6-11.8.1-2.7.3-5.4.4-8.2.1-2.2-.1-4.4.1-6.6.3-3.8.8-7.5 1.2-11.3-.1-1 1.8-1.9 2.7-1.4zm-43.7 77.2c.5.8 1 1.5 1.5 2.3.4.6.2 1-.4 1.2-.5.2-1 .4-1.5.6-.7.2-1.5.7-2.2.5-.5-.1-.7-1-1.1-1.6-1.3-2-2.7-3.9-3.9-5.9-2.6-4.4-4.9-8.9-7.5-13.3-2.3-3.7-4.7-7.4-7.4-10.9-1.4-1.7-2.6-3.5-3.8-5.4-.7-1.2-.5-1.5.9-1.8.5-.1.7-.5 1.8-.4s1.1.7 1.6 1.2c2 2.5 3.9 5 5.8 7.6 2.4 3.2 4.4 6.5 6.1 10.1 1.4 2.9 3.2 5.5 4.9 8.2 1.7 2.6 3.5 5.1 5.2 7.6zm1.8-1c-.3-.2-2.3-3.1-2.9-5-.4-1.2-.3-2.1-.2-3 .4-3.1.7-6.2.9-9.3.2-1.9.1-3.8.2-5.7.4-6.4 1-12.8 1.4-19.3.2-2.6.3-5.3.5-7.9.2-2.1.4-4.2.7-6.3.1-.5.4-1.1.7-1.2.8-.2 1.8-.2 2.7-.2.1 0 .3.5.4.8.1.5 0 1.1 0 1.8-.3 1.7-.5 3.5-.8 5.4-.9 5.3-1.7 10.6-2 16-.2 4.2-.5 8.5-.4 12.7 0 2.7-1.1 20.8-1.2 21.2zm-44.3 24.9c-.5-.5-.4-1 .2-1.3 1-.5 1.9-.9 2.9-1.3 3-1.4 6-2.8 9.2-4.1 4.7-1.8 9.4-3.5 14.1-5.2 4.1-1.5 8.3-2.8 12.3-4.6 2.3-1 4.5-2.2 7-2.4.1 0 .3-.1.4-.1 3.9-2.1 8.2-2.5 12.3-4 .7-.3 1.3-.3 1.9.2 1.3.9 2.7 1.8 3.9 2.7.9.7.8 1.2-.2 1.6-.1.1-.3.1-.4.2-9 2.5-17.7 6-26.5 9-5.1 1.8-10.2 3.5-15.3 5.3-.1.1-.3.1-.4.1-4.6 2.4-9.7 3.4-14.6 5.1-.9.3-1.8.7-2.7 1-1.7-.1-2.9-1.2-4.1-2.2zm-2.7 1.9c0-.8.4-1 1-.6 1.2.9 2.4 1.8 3.6 2.7.8.6 1 1.5 1 2.4 0 2.6-.3 12.7-.3 15.2 0 1.5-.2 1.8-1.8 2-1.4.2-1.6.1-1.7-1.4-.6-5.2-1.2-10.4-1.7-15.5-.2-1.6-.1-3.2-.1-4.8zm-42.6-16.2c-.2 3.3-.4 6.7-.3 10 .1 3.1-.3 6-.4 9.1 0 .6-.1 1.2-.3 1.8-.1.2-.4.3-.7.4-.1 0-.3-.3-.3-.5-.1-1.2-.1-3.6 0-3.6-.4-5.2-.9-10.4-1.3-15.6-.1-1.4-.1-2.9-.1-4.3 0-1.2.1-1.2 1.3-.7 1.6.5 2.2 1.6 2.1 3.4zm47.4-38.3c0 .5 0 .9-.8.7-.4-.1-.7-.4-1.2.1s0 .9.2 1.2c1.5 2.1 1.7 4.5 1.4 7-.2 1.7-.3 3.5-.5 5.2-.1 1-.7 1.6-1.7 1.8-.1 0-.4-.1-.4-.2-.1-1.2-.3-2.4-.3-3.6 0-2 .2-4.1.2-6.1.1-5 .1-10 .1-15 0-1.5 1.5-2.6 2.9-2.2.2.1.4.6.4.9 0 1.7-.3 8.5-.3 10.2zm-40.8 30.1c2.5-.8 5-1.4 7.4-2.3 1.7-.6 3.4-1.4 5-2.1.4-.2.9-.4 1.3-.4 4.1-.4 7.7-2.4 11.5-3.5 1.7-.5 3.5-.8 5.3-1.3 2.1-.6 4.2-1.2 6.3-1.8 1.6-.5 3.3-.5 4.9-.1 1.2.3 2.4.4 3.5.6-.8 1.2-2.2 1.1-3.4 1.4-3 .9-6 1.7-9 2.6s-5.9 1.9-8.9 2.8c-3.9 1.1-7.9 1.9-11.8 3.1-5.1 1.6-10.3 2.7-15.4 4.1-.9.2-1.7.5-2.5.8-.4-.1-.8 0-1-.2-.4-.2-.6-.6-.9-.9.3-.2.5-.5.9-.7 2.3-.7 4.6-1.4 6.8-2.1zm.3-7.5c-.1.5-.2 4-.4 5.2-.1.3-.5.5-.8.7-.2-.3-.6-.5-.6-.8-.2-2.3-.4-4.7-.5-7 0-.7.3-.8.8-.6 1.1.5 1.7 1.2 1.5 2.5zm4.5-6.4c.4.2.6.7 1 1.1-.4.2-.7.6-1.1.7-1 .3-3.9.9-4.1.7-.5-.2-.9-.7-1.4-1 .3-.3.6-.6 1-.8 1-.4 2-.8 3-1 .5 0 1.1.1 1.6.3zm2.3 9.2c0 .6-.3 1-.9 1.2-1 .4-2 .7-3 1-1.1.3-1.4 0-1.4-1.2 0-.2 0-.5 0-.4.5-4.5 0-4.1 4-2.6 1 .2 1.3 1 1.3 2zm-2.9-4.6c-.1 0-.1-.6-.1-.6 1.1-.5 2.2-.9 3.4-1.4.3.2.6.3.8.4.4.3.9.6 1.2 1 .4.4.7.8 1.1 1.3-.7.3-1.6 1-2.2.9-1.5-.3-2.8-1-4.2-1.6zm9.7 3.1c-.2.2-.5.3-.8.4-.7.3-1.3 0-1.8-.5-.1-.1-.1-.3 0-.4.5-.3 1-.6 1.5-1 .4.3.9.4 1.2.7 0 .2 0 .6-.1.8zm-17.1-49.1c0-2.9.2-5.8.3-8.6 0-.9.3-1.1 1.1-.6 1.4.8 2.8 1.6 4.1 2.5 3.2 2.3 6.3 4.7 9.6 6.9 3.4 2.2 7 4.4 10.6 6.2 4.4 2.2 8.5 5 12.6 7.7.8.6 1 1.3 1 2.1v12.8c-.1 2.4-.2 6.1-.3 9.7v.9c-.3 2.7-.5 3.1-3.1 3.7-4.7 1.1-9.4 2.5-13.9 4.3-1 .4-1.8.4-2.8-.2-3.7-2.1-7.2-4.4-10.2-7.6-1.5-1.6-3.2-3-4.9-4.4-.5-.4-.9-.8-1.4-1.2-3.3-3.1-2.9-2.9-2.8-7.2.1-5.4.4-10.8.4-16.2.1-3.6-.2-7.2-.3-10.8zm-37.3 99.4c-.6-.5-.5-.9.2-1.1 2.6-.9 5.2-1.6 7.8-2.6 2.6-.9 5.1-1.9 7.6-2.9 4.9-2 9.7-4.3 14.9-5.5 2.4-.5 4.6-1.5 6.9-2.2 3.9-1.2 7.8-2.3 11.8-3.3 2.3-.6 4.3.6 6.2 1.7.1.1.1.3.2.4-.1.1-.1.3-.3.4-.3.2-.7.3-1 .5-4.3 1.6-8.7 3.2-13 4.7-5.5 1.9-10.9 4.1-16.6 5.5-.3.1-.6.2-.9.3-5.2 2.3-10.7 3.8-16.1 5.6-.1 0-.2 0-.2.1-3 1.8-5.3.3-7.5-1.6zm-29.5-12.8c-.9-.2-1.7-.5-2.6-.8.4-1 1.5-.9 2.2-1.3 5.8-2.5 11.4-5.4 16.9-8.4 1.9-1 3.9-1.8 5.8-2.5 4.7-1.8 9.4-3.5 14.1-5.1.8-.3 1.8-.4 2.6-.4.2 0 .6.3.7.5s-.2.5-.4.7c-1.1.7-2.2 1.3-3.3 1.9-4.2 2.2-8.3 4.3-12.9 5.7-1.9.6-3.6 1.5-5.4 2.4-4.4 2.2-8.9 4.2-13 7.1-.6.5-1.5.5-1.9.7-1.2-.2-2-.3-2.8-.5zm-7.7 19.9c.4-2.9.5-5.9.9-8.8.4-3.1.9-6.2 1.4-9.2.1-.4.5-.8.7-1.1 2 .5 3.7.8 5.4 1.3.2 0 .4.5.3.7-.8 4.6-.6 9.2-.7 13.8-.3 6.9.6 13.8.7 20.7 0 1.1 0 2.1.1 3.2 0 .4.2 1.1.1 1.2-.6.3-1.3.6-1.9.6-.3 0-.8-.7-.9-1.1-.2-1.6-.3-3.2-.4-4.8-.2-3.1-.3-6.2-.4-9.3 0-1.4-.9-2.2-1.8-3s-1.9-1.5-2.8-2.3c-.7-.5-.8-1.1-.7-1.9zm-29.5-25.9c5.7-2.6 11.4-5.4 17-8.2 2.3-1.1 4.4-2.7 6.7-3.8 3.6-1.9 7.4-3.6 11-5.4 1.3-.6 2.6-1.3 3.9-2 .7-.4 1 0 1 .7v4.6 3.9c.1 0 .3 5.3.3 8 0 .4 0 .9.2 1.3.5 1.3.6 1.3-.5 1.8-2.6 1.1-5.1 2.3-7.8 3.2-1.3.5-1.7 1.2-1.8 2.5-.2 2.4-.7 4.8-1 7.2-.2 2.2-.3 4.4-.4 6.6v1.4c-.4 4.1-.4 3.3-3.5 3.5-6 .5-11.9 1.1-17.9 1.7-2.2.2-4.3.8-6.5 1.1-1.5.2-1.7.2-1.9-1.4-.2-1.7-.4-3.5-.5-5.2-.2-5.9-.3-11.8-.6-17.7-.2-2.1.6-3 2.3-3.8zm-6.1-2.1c-.5-.2-.6-.7-.1-1.1.1-.1.2-.2.4-.3 3.1-1.5 6.3-3 9.5-4.5 3.7-1.7 7.5-3.4 11.2-5.1 3.4-1.5 6.7-3.1 10.2-4.6 3-1.3 6.1-2.4 9.1-3.6.4-.2.9-.4 1.3-.4.6 0 1.2.3 1.7.4-.4.4-.7.9-1.2 1.1-3.2 1.6-6.4 3.1-9.6 4.6-1.8.9-3.6 1.7-5.2 2.8-3.9 2.6-8 4.6-12.2 6.6-2.9 1.4-5.8 2.7-8.7 4-1 .4-2 .8-3 1.1-1.3-.2-2.4-.6-3.4-1zm2.7 25.3c.1 1.5.1 3 0 4.6 0 .9-.6 1.2-1.8 1.3-.9.1-1.2-.4-1.3-1.2-.6-4.4-1.2-8.7-1.7-13.1-.5-4.2-.8-8.5-1.2-12.7 0-.5-.1-1.1-.1-1.6 0-.7.4-1.2 1.2-1h.2c3.3.7 3.3.4 3.7 4.1.3 1.8.7 14.9 1 19.6zm43.3 18.4c-.2-3.2-.4-6.4-.6-9.5-.1 0 0-10.9.1-16.4 0-1.4.1-2.9.1-4.3 0-.8.3-1.4.8-2 1.3-1.6 2.9-2.8 4.8-3.6 2.6-1.1 5.1-2.6 7.6-4.1 4.6-2.6 9.7-4.2 14.6-6.4 2.5-1.1 4.9-2.4 7.3-3.6 1.4-.7 2.7-1.4 4.1-2 1.1-.5 1.8 0 1.8 1.2 0 1-.1 2-.1 3-.1 4.9-.2 9.9-.3 14.8 0 .4 0 .8.1 1.1.1.5.5.9.5 1.3-.1.3-.8.4-1.2.6-2.3 1.3-4.7 2-7.3 2.5-1.8.4-3.4 1.2-5.1 1.9-.6.2-1.1.4-1.7.5-1.4.4-1.7.6-1.7 1.9 0 2.4.1 4.8.2 7.3.1 3.9.2 7.9.3 11.8 0 .9.1 1.8.3 2.7.1.3 1.5.2 1.5-.1 0-1.7-.1-3.3-.1-5-.1-4.3-.2-8.6-.2-13 0-1.2.2-1.3 1.3-.8 1.7.8 2.7 1.8 2.7 3.8 0 1.7.2 3.3.2 5 .1 3.2.2 6.4.3 9.5 0 .9-.2 1.3-1 1.5-3.5.8-6.9 1.6-10.4 2.3-3.1.7-6.3 1.2-9.4 1.9-3 .7-5.9 1.5-8.8 2.2-.6.1-.7-.1-.7-.7.1-1.9.1-3.6 0-5.3zm101.6-44.9c.3 5.2.6 10.5 1 15.7.2 2.5.4 5 .6 7.5.1 1.4 0 1.5-1.3 1.9-3.1 1-6.2 2-9.3 3-1.4.4-2.9.8-4.4 1.3-.7.2-1.2 0-1.4-.7-.2-.6-.4-1.3-.4-2-.2-3.6-.4-16.2-.4-18.9 0-1.6-.4-2.3-1.9-3-1.7-.7-3.3-1.5-5-2.2-.5-.2-1.2-.4-1.7-.2-4 1.1-8 2.2-12 3.4-.8.2-1.6.5-2.4.8-.8.2-1.2-.1-1.3-.9-.1-.6 0-1.2 0-1.8.1-3.1.1-6.2.2-9.3.1-2.6.2-5.3.3-7.9.1-2 1-3 3-3.7 6.4-2 13-3.7 19.5-5.5 4.9-1.4 9.8-2.6 14.7-4 4.7-1.3 9.3-2.8 13.9-4.2 3.1-.9 3.3-.7 3.4 2.5.2 4.9.4 9.7.6 14.6.1 1.7.2 3.3.3 5 .1.9-.1 1.3-1 1.7-3 1.3-5.9 2.7-8.9 4-1.4.4-6.2 1.5-6.1 2.9zm84.8 11.7c0 .2.1.5.1.7-.2 3.2.2 3.3-3.1 4.3-3.8 1.2-7.7 2.4-11.5 3.5-.9.3-1 .2-.9-.8.1-.6 0-1.3 0-2 0-.6-.2-1.2-.2-1.8 0-3.2.1-6.4.2-9.6.2-4.3.6-8.6.9-12.9 0-.1 0-.3 0-.5.1-2.2.2-2.3 2.1-1.2.1 0 .1.1.2.1 2.3 1.3 4-1.8 3.4-2.3-.6-.6-1.4 1.4-2.2 1.1-1-.4-1.9-1-2.7-1.6-.2-.2-.1-.9 0-1.3.2-1.6.6-3.1.8-4.7.2-1.5-.1-2.8-1.6-3.6-1.2-.7-2.3-1.7-3.5-2.5-.8-.6-1.6-1.3-2.5-1.4-1.1-.2-1.4-.6-1.4-1.6 0-1.1 0-2.1.1-3.2.3-3.9.6-7.9.9-11.8.3-5.1.6-10.1.8-15.2 0-1 0-2 0-3 0-.2.2-.4.3-.5.2.1.4.2.5.4.4.8.8 1.6 1.2 2.4 2.3 4.2 4.1 8.6 6 13 .8 1.8 1.8 3.5 2.7 5.2 2 3.6 3.9 7.2 5.9 10.7.9 1.5 1.8 3 2.7 4.5.8 1.3 1.3 2.7 1.3 4.3 0 3.3.2 6.5.3 8.9-.3 4.1-.6 7.2-.7 10.4-.3 4-.2 8-.1 12zm9.3-38.7c.6 1.1.5 1.4-.8 1.8-.5.2-1 .2-1.6.3-1.5.3-3 .6-4.4 1-1.2.3-1.6.2-2.2-.9-.8-1.3-1.5-2.6-2.2-4-2-3.7-4-7.5-6.1-11.2-1.7-2.8-2.9-5.8-4.3-8.8-2.1-4.6-4.3-9-6.6-13.5-1.6-3.2-1.7-3.2 1.8-4 .8-.2 1.6-.3 2.4-.5.8-.1 1.2.3 1.5.8 1.1 2 2.2 4 3.4 5.9.8 1.4 1.7 2.7 2.5 4.1 2.2 3.3 4.2 6.6 5.9 10.2 1.8 3.7 4.1 7.1 6.1 10.7 1.7 2.8 3.2 5.4 4.6 8.1zm1.9 4.4c.1 1.1.2 2.3.2 3.4-.1 3-.3 8.9-.2 8.9v8.4c0 .2-.4 9.4-.4 13.9 0 .3-.1.9-.3 1-.6.2-1.3.4-2 .4-.1 0-.4-.6-.4-.9-.1-1.9-.1-3.8-.2-5.7 0-3.3 0-6.7-.1-10 0-.6 0-1.2-.2-1.8-.1-.3-.7-.5-1.1-.6-.2 0-.7.4-.7.7-.1.7-.1 1.5-.1 2.3.1 3.3.2 6.7.2 10 0 2-.2 4.1-.4 6.1 0 .3-.4.6-.6.8-.3.2-.7.1-1.1.2-2.3.6-2.1.6-2.3-1.9-.4-4.7.2-9.4.1-14.1 0-2.4.2-4.9.4-7.3.4-3.4.1-6.8.1-10.2 0-3 .1-3.2 3-3.8 1.6-.3 3.1-.6 4.7-.9 1.1-.2 1.3-.1 1.4 1.1zm-199.8-89.5c-.2 2.8-.4 5.6-.6 8.4 0 .2-.2.5-.4.5-.1 0-.4-.2-.5-.3-.7-1.5-1.2-3-1.1-4.8.2-2.9.5-5.7 1.9-8.3.1-.2.4-.4.6-.5.1.3.2.6.2.8-.1 1.3-.2 4.2-.1 4.2zm220.7 120.4c-.3-.2-.9-.3-1.2-.2-3.8.9-7.7 1.8-11.5 2.7-1.6.4-3.2.8-4.9 1.2s-1.8.3-1.8-1.5c-.1-1.4-.1-2.7 0-4.1.1-3.5.3-7 .4-10.5 0-2-.2-3.9-.2-5.9 0-2.3.2-4.5.3-6.8.1-2.1.2-4.2.2-6.4 0-1.3-.1-2.6-1.4-3.4-.3-.2-.6-.7-.8-1.1-1-1.8-1.9-3.7-3-5.4-1.8-2.7-2.6-5.5-2.4-8.8.2-2.1-.2-4.2-.2-6.4 0-.2.1-.4.2-.6.2.2.4.4.4.6.2 2.5.3 5 .4 7.5.1 1 .8 1.6 1.6 1.4.9-.3.7-1 .6-1.7-.2-1.6-.4-3.1-.5-4.7-.1-1.5-.1-3-.3-4.5-.2-1.9-.6-3.7-.8-5.6-.2-2.1-.4-4.2-.5-6.4-.1-3.8-.3-7.6-.1-11.4.3-5.8 1-11.5 1.4-17.3.2-2.7.4-5.5.1-8.2-.3-3.7.4-3.5-3.7-4.4-5.2-1.2-10.4-2-15.4-4-1.3-.5-2.7-1-4.2-1.2-3.6-.4-6.9-1.9-10.3-2.8-3.2-.9-6.4-2-9.6-2.8-2.6-.7-5.2-1.1-7.8-1.6-.4-.1-.8-.2-1.1-.2-2.5.5-4.9 1-7.1 2.3-.7.4-1.1 1-1.1 1.9-.1 1.7-.4 3.5-.4 5.2 0 3.4.2 6.8.3 10.2.1 1.3-.1 1.5-1.2.9-4.5-2.3-9.4-3.6-13.7-6.2-1.1-.7-2.4-1-3.6-1.5-1.4-.5-2.8-.8-4.1-1.4s-2.5-.4-3.7.2c-.5.3-1.1.6-1.6.8-1.6.6-2.2 1.8-2.2 3.3v3.4c-.3 7.6-.6 15.2-1 22.8 0 .3-.1.6-.1.9-.2 1.2-.4 1.4-1.4.7-1.1-.7-2.1-1.4-3.2-2.2-.5-.4-1-.8-1.2-1.4-1.5-3.3-2.5-6.7-2.7-10.3-.3-4.2-.1-8.3-.2-12.5 0-4.3-.1-8.5-.1-12.8 0-1.4-.3-1.8-1.6-2-1.7-.3-3.5-.5-5.2-.7-1.9-.2-3.8-.2-5.6-.6-5.2-1.3-10.4-2.8-15.6-4.2-.7-.2-1.1-.6-1.2-1.2-.3-1.6-.7-3.1-.7-4.7 0-3.9.2-7.9.2-11.8 0-2.3.1-4.6 0-6.8-.1-2-.1-2-2.3-2-.7 0-1.4-.1-2-.1-5.2.2-10.5.4-15.7.7-5.3.3-10.6.7-15.9 1.2-3.9.4-7.8 1.1-11.8 1.1-5.1 0-10.1 1.1-15.2.8-.2 0-.5 0-.7 0-1.5.3-2.4 1.2-2.5 2.8-.1 1.9-.3 3.8-.3 5.7 0 3.4 0 6.8.1 10.2 0 1.1-.3 2-1 2.9-.6.7-1.1 1.6-1.6 2.4-1.8 3-2 6.4-2.4 9.7-.2 1.3-.1 2.7.8 3.9.8 1.1 1.4 2.3 2 3.6.4.9.9 1.8 1 2.7.2 3 .3 6.1.4 9.1 0 1.3.9 2.3 2.2 2.4.4 0 .8-.1 1.1 0 .4.1.8.3 1.2.4-.3.3-.5.7-.8 1-.4.3-.8.4-1.3.5-1.3.3-2.1 1-2.1 2.3 0 .8-.3 1.1-1.1 1.1-1.2.1-2.4.2-3.6.3-4.1.1-8.2.2-12.3.2-.7 0-1.3.1-2 .1-.8 0-1.3-.2-1.3-1.2-.1-1.8-.2-3.6-.3-5.5-.2-7.6-.5-15.2-.5-22.8 0-11.8.2-23.5.4-35.3.1-6.1.3-12.1.5-18.2.1-5.9.2-11.8.4-17.8.3-6.1.7-12.1 1-18.2.2-4.5.3-9 .6-13.4.4-6.2 1.1-12.4 1.5-18.6.5-7.7.8-15.3 1.1-23 0-.4.1-.8 0-1.1s-.5-.7-.7-.7c-.3 0-.8.2-.9.5-.2.6-.3 1.3-.3 2-.2 4.2-.4 8.3-.6 12.5-.3 5.3-.6 10.6-.9 15.9-.4 6-.8 12-1.2 17.9-.5 8.6-1 17.1-1.4 25.7-.2 5.4-.3 10.8-.4 16.2 0 2 .1 3.9.1 5.9-.1 4.2-.4 8.5-.5 12.7-.1 2 0 3.9-.1 5.9-.1 8.3-.2 16.5-.3 24.8 0 6.3.1 12.6.1 18.9 0 2.4.1 4.9.2 7.3.1 3.1.3 6.2.5 9.3.1 1.3-.2 2.4-1.4 3.1-.3.2-.6.5-.9.7-5.7 4-11.2 8.1-17.2 11.5-3.7 2.1-7.2 4.5-10.8 6.7-.6.4-1.3.8-2 1.1-.5.2-.9 0-1-.6-.1-.5-.1-.9 0-1.4.1-3.2.1-6.4.2-9.6 0-.9 0-1.8-.1-2.7-.2-1.4-.6-1.8-2-1.6-1.9.2-3.8.6-5.6 1-2.6.6-5.1 1.4-7.7 2.1-1.8.5-3.6 1.1-5.4 1.7-3.1 1-6.1 2.3-9.3 3.1-2.1.5-4.2.8-5.5 2.7-.3.4-.7.3-.9-.2-.1-.2-.1-.4-.2-.7-1.2-4-.7-8.1-.5-12.2 0-.3.3-.7.5-.9 1-.8 2.1-1.5 3.2-2.1 4.7-2.7 9.4-5.4 14-8 .6-.4.9-.1.9.7-.1 1.1-.3 2.3-.4 3.4-.1 1.4.4 2 1.7 2.6 1.1.5 1.8 0 2.4-.7.5-.6 1-1.4 1.1-2.2.4-1.9.7-3.9.9-5.8.1-1.4.2-2.7 1.2-3.8.5-.5.7-1.1.4-1.9-.9-2.1-.6-3.3 1.1-4.6.6-.5 1.2-.9 1.9-1.2 2.1-1.3 4.3-2.6 6.4-3.9 2-1.2 3.9-2.3 5.9-3.4 2.8-1.6 5.6-3.1 8.4-4.6 1.6-.9 3.1-1.9 4.8-2.6 1.4-.6 1.7-1 1.2-2.4-.9-2.6-1.1-5.4-1.2-8.1-.3-11.4-.4-22.8.2-34.2.4-7.9.4-15.8.6-25.1.2-4.6.5-10.7.7-16.8.1-2.1.2-4.2.3-6.4 0-1.4-1.1-2.5-2.5-2.1-1.3.3-2.7.6-3.8 1.3-4.4 2.6-9 4.7-13.8 6.4-3.7 1.3-7.3 2.5-10.9 3.9-4.6 1.8-9.1 3.7-13.7 5.6-6.4 2.7-12.7 5.3-19.1 8.1-7.8 3.3-15.6 6.7-23.4 10.1-4.5 2-9 4-13.5 6.1-3.4 1.6-6.8 3.5-10.1 5.2-6.2 3.2-12.4 6.5-18.6 9.7-5.7 2.9-11.4 5.7-16.9 9-2.7 1.7-5.5 3.1-8.2 4.8-1.4.8-2.5 1.9-2.3 3.8.3 3.7.3 7.4.6 11.1.5 7.2 1.1 14.4 1.5 21.6.4 6.1.5 12.3.8 18.4.1 2.5.4 5 .7 7.5.7 5.7 1.4 11.4 2.2 17.2.8 6.4 1.6 12.8 2.4 19.2.3 2.7.7 5.4 1 8.1.2 1.2.8 1.6 2 1.1 1-.4 2-.8 2.8-1.4 5.1-3.4 10.2-6.9 15.4-10.2 2.9-1.9 5.9-3.5 8.8-5.2.3-.2.7-.1 1-.2 0 .3.1.6 0 .9-.4 2.2-.8 4.3-1.3 6.5-1.2 5-2.1 10.1-2.5 15.3-.2 3.4.1 6.8.2 10.2 0 .1.2.6.8.6s.5-.7.6-.8c.1-.4.1-9.5.2-12.1s1.7-9.9 2.6-14c.1-.3.3-.5.4-.8.1.3.4.6.4.9.1 1.7.1 3.5.2 5.2.2 4.9.5 9.8.8 14.8 0 .5.3 1 .6 1.4 1.5 1.3 4.7 4.2 6.6 5.2s2.8.2 3.1 0c0 0 .1-.1.1-.1 1.6-1 3.2-2.1 4.9-3.1 1.3-.8 2.6-1.6 3.9-2.3.6-.4 1-.1 1 .6 0 .5.1.9.1 1.4.1 2.7.1 5.3.2 8 0 .8-.4 1.2-1.1 1.6-7.1 4.4-14.1 9-20.7 14-4 3-8.3 5.7-12.5 8.4-4.5 2.9-9.1 5.7-13.7 8.6-4.3 2.8-8.6 5.7-12.9 8.5-4.8 3.2-9.6 6.3-14.4 9.6-3.4 2.4-6.8 4.9-10.1 7.3-5.8 4.2-11.7 8.5-17.5 12.7-3.5 2.5-7.1 5-10.6 7.5-.1.1-.3.2-.3.3-.1.1-.1.3-.1.4.1.1.3.2.4.2.8-.4 1.7-.7 2.4-1.2 4.7-3.4 9.2-6.9 14-10.2 8-5.6 16.1-11.1 24.2-16.7 2.6-1.8 5.2-3.6 7.9-5.4 4.3-2.9 8.6-5.7 13-8.5 3.6-2.3 7.1-4.6 10.7-6.9 3.9-2.5 7.9-4.9 11.8-7.4 3.3-2.1 6.6-4.2 9.7-6.7 4.9-3.8 10.1-7.2 15.3-10.7 1.1-.8 2.3-1.5 3.5-2.1.9-.5 1.3-.3 1.3.7.1 2.7.2 5.3.3 8 0 1.4.1 2.7.1 4.1 0 .7.3 1.2 1 1.3 1.6.3 3.1.6 4.7.8.2 0 .7-.4.7-.6 0-.3-.3-.7-.5-.8-.6-.3-1.3-.5-2-.6-1.4-.3-2-1.1-2.1-2.5-.2-3.5-.4-7-.7-10.5-.1-1.1.4-1.6 1.3-2.2 2.2-1.5 4.4-3 6.5-4.6 3.7-3 7.6-5.8 11.7-8.2 1.1-.7 1.3-.6 1.3.6v10.5c0 2.5 0 5 .1 7.5 0 .5.3 1.2.9 1.1.4-.1 1.1-1.6 1.1-1.9-.1-2.2-.3-4.4-.3-6.6-.1-8.5 0-17-.2-25.5-.1-3 0-5.9.3-8.9.1-1.2.6-2 1.7-2.5 1.3-.6 2.6-1.3 4-1.7 5.4-1.9 10.7-3.8 16.1-5.6 3.4-1.2 3.3-2 3.7 2.5.4 5 .3 10 .4 15 0 1.6-.2 3.2-.2 4.8 0 2.5.1 5 .2 7.5.2 6.1.5 12.1.7 18.2 0 1.3 0 1.4-1.3 1.7-1.8.4-3.7.7-5.6 1.1-4.3 1-8.6 2-12.8 3-2.1.5-4.1 1-6.2 1.5s-2.2.4-2.3 2.6v.9c.1 3.3.2 6.5.4 9.8l1.5 19.5c.1 1.1.1 2.3.1 3.4-.1 1.5-.5 1.8-2 1.5-.5-.1-1-.3-1.5-.5-1.2-.4-2.3-.8-3.5-1.1-3.5-.9-7.1-1.8-10.6-2.7-2.7-.7-5.5-1.4-8.1-2.2-5.1-1.7-10.2-3.5-15.2-5.4-2.6-1-5.4-1.7-7.6-3.6-.4-.3-1.2-.5-1.7-.3-2.2.8-4.3 1.8-6.6 2.6-1.3.5-1.9 1.3-1.9 2.5 0 1.7.1 3.3.1 5 .1 6 .1 12 .2 18 0 1.7-.2 3.5-.1 5.2.2 3.1.5 6.2.7 9.3.4 5.8.8 11.5 1.3 17.3.2 2.7.5 5.4.7 8.2.1.7.3 1.3 1.1 1.2s.8-.8.7-1.4c-.2-1.5-.4-3-.6-4.5-.3-4-.7-8-.9-12-.5-8.6-1.4-17.1-1.1-25.7.1-1.6-.1-3.2-.1-4.8-.1-4.6-.1-9.1-.2-13.7 0-.2 0-.3 0-.5.1-.6.5-.8 1-.6.4.1.8.3 1.3.5 4.2 1.6 8.3 3.3 12.6 4.7 6 2 12 3.9 18 5.9 1.7.5 3.3 1.2 4.9 1.9 5.3 2.1 10.7 3.9 16.3 4.9 2.4.4 4.7 1.2 7.1 1.7.9.2 1.3.7 1.2 1.6v.9c-.1 3.9-.2 7.7.3 11.6.4 3.2.6 6.3.9 9.5.1.8.1 1.5.1 2.3s-.4 1.1-1.1 1.2c-2.7.2-5.4.5-8.2.6-1.3.1-1.3 0-1.3-1.4 0-1-.4-1.6-1.3-1.9-1.7-.5-3.4-.9-5.1-1.2-2.8-.6-5.7-1-8.5-1.8-5.4-1.5-10.8-3.2-16.1-4.8-2.7-.8-5.4-1.6-8.1-2.4-1.1-.3-2.2-.8-3.3-.9-1.8-.3-3 1-3 2.8.1 1.3.1 2.6.1 3.9-.1 4.7-.2 9.4-.2 14.1 0 3.8.2 7.6.3 11.4 0 2.9-.1 5.8-.2 8.6 0 .7.1 1.2.7 1.5.3.1.9.2 1 0 .3-.5.4-1 .6-1.6 0-.1-.1-.1-.1-.2-.3-2.7-.7-5.4-.9-8.1-.2-4.1-.1-8.2-.1-12.3.1-4.7.2-9.4.4-14.1 0-1 .3-2 .5-2.9.1-.7.5-.8 1.2-.6 3.8.8 7.5 1.7 11.2 3 3 1.1 6.1 1.7 9.2 2.7 4.8 1.6 9.6 2.8 14.5 3.7 1.4.3 2.7 1 4 1.6.3.1.5.6.5.9 0 .2-.5.4-.9.5-.2.1-.5 0-.7 0-2.1 0-4.2 0-6.3 0-1.1 0-1.3.3-1.4 1.3-.1 1.5-.3 3-.4 4.5-.2 2.4-.3 4.8-.5 7.3-.1 1.1 0 2.1-.1 3.2-.5 6-.3 12-.1 18 .2 4.7 1 9.4.4 14.1-.1 1 .1 2.1.2 3.2 0 .2.1.5.2.6s.4.3.6.3.5-.2.5-.3c.1-.4.2-.9.2-1.3.3-5.6-.2-11.2-.7-16.8-.1-1-.2-2-.2-3 .1-6 .2-12 .4-18 .1-2.7.2-5.3.6-8 .3-2.6.6-3.1 3.4-3.3 4.2-.2 8.3-.5 12.5-.9 4.5-.4 9.1-1 13.6-1.3 5.3-.3 10.6-.9 15.9-.6.8 0 1.5 0 2.3-.1 2.4-.1 4.7-.2 7.1-.2 2.5-.1 5 0 7.5-.2 4.5-.3 8.9-.4 13.4.2 1.7.2 1.7.2 1.6 1.9 0 1.4-.2 2.7-.2 4.1-.1 5.6-.2 11.2-.2 16.9 0 6.8 0 13.7.1 20.5 0 5.2.2 10.3-.9 15.4-.1.3-.2.7 0 .9.3.4.6.9 1 1.1.7.2.8-.5.9-1 .1-1 .1-2 .2-3 .9-6 .6-12.1.5-18.2-.1-2.3.1-4.7.1-7.1 0-.1.1-.3.2-.4.1.1.2.1.3.2.1.4.3.7.4 1.1 1.8 7.2 3 14.6 3.9 22 .1.6.1 1.2.3 1.8.1.3.6.7.8.6.4-.1.9-.5.9-.8.1-.7 0-1.4-.1-2-.8-5.2-1.6-10.5-2.5-15.7-.6-3.1-1.3-6.3-2.3-9.3-1.2-3.6-2.1-7.1-1.9-10.9.3-5.5.3-11.1.5-16.6.1-2.8-.2-3.4-3.1-3.4-2.6-.1-5.2 0-7.7 0-.5 0-1.2 0-1.2-.7-.1-.7-.1-1.4.7-1.8.5-.2 1-.4 1.5-.5.7-.1 1.5-.1 2.3-.2 4.8-.4 9.5-.8 14.3-1.2 3-.2 6.1-.5 9.1-.6 1.5-.1 1.7.2 1.7 1.7.1 5.4.3 10.8.4 16.2 0 2.3.2 4.6.1 6.8-.5 7-1.3 13.9-2.5 20.8-.3 1.6-.3 3.3-.4 5 0 .5.1 1 .3 1.5 0 .2.4.4.5.3.3-.1.6-.3.7-.5.1-.3 0-.7-.1-1.1 0-.8-.2-1.7-.1-2.5.5-3.5 1.1-7 1.8-10.6 0-.2.2-.3.4-.5.1.2.2.3.2.5.3 4.1.7 8.2 1 12.2 0 .3-.1.7.1.9.2.4.6.6.9 1 .2-.3.5-.7.7-1 .1-.1.1-.3 0-.4-.7-2-.3-4.1-.5-6.1-.4-5.1-.7-10.1-1.2-15.2-.4-4.4 1-8.2 2.8-12 .2-.3.4-.7.6-1l.6-.6c.1.3.3.5.3.8.2 2.3.4 4.7.4 7 0 8.4.7 16.7 1.5 25 .1 1.2.5 1.9 1.1 1.7.9-.4.5-1.1.4-1.8-.3-3-.8-6-1-9-.2-4.1-.1-8.2-.3-12.3-.2-5.2-.4-10.3-.9-15.5s-.9-10.4-1-15.7c0-1.7.1-1.8 1.6-2.3.4-.1.9-.2 1.3-.3 2.7-.6 5.3-1.3 8-1.9 2.9-.7 5.9-1.5 8.8-2.1 3.6-.7 7.2-1.3 10.7-2 6.6-1.4 13.2-2.8 19.8-4.2 3.2-.7 6.4-1.3 9.6-1.9 2.8-.5 5.5-1 8.3-1.5 1.1-.2 1.2-.1 1.3 1.2 0 .2.1.5.1.7-.2 4.5-.4 9.1-.6 13.6-.2 5.8-.4 11.5-.6 17.3-.1 2.9 0 5.8.1 8.7.1 3.1.3 6.2.4 9.3.1 1.4 0 2.7.1 4.1 0 .2 1.3.4 1.3.1.2-1.8.4-3.6.4-5.4-.1-2.7-.4-5.5-.4-8.2 0-4.5.1-9 .1-13.4 0-.2.2-.3.2-.5l.3.3c1.1 2.8 2.6 5.5 3.2 8.5 1 4.8 2.2 9.6 2.7 14.5.1.9.4 1.8.8 2.6.1.2.5.4.7.4.2-.1.4-.4.5-.7.1-.2 0-.4 0-.7-.2-1.4-.4-2.9-.6-4.3-.7-3.7-1.4-7.3-2.1-11-.5-2.5-1.1-4.9-2.1-7.2-.5-1.2-1-2.4-1.5-3.6-.4-1.1-.3-1.3.7-1.7 1.1-.3 2.2-.7 3.3-.9 3.7-.7 7.4-1.4 11.1-2.5 1.9-.6 1.9-.5 2 1.5v1.1c0 4.8-1.3 9.3-2.5 13.8-1 3.5-1.6 7.1-1.7 10.8 0 .7.1 1.5.3 2.2.1.4 1.3.2 1.5-.1 0-.1 0-.1 0-.2-.3-2.8.1-5.5.6-8.1.4-2 1.1-3.9 1.7-5.9 0-.1.2-.2.2-.3.1.1.2.2.2.3.3 1.6.7 3.3.9 4.9.3 2.5.4 5 .5 7.5 0 .4.1.9.3 1.3.1.2.5.3.8.3.1 0 .4-.3.4-.4.1-.7.2-1.5.2-2.2-.4-6.1-1.1-12.1-1.4-18.2-.2-3.8.9-7 2.7-10.1.1-.2.3-.3.4-.5 0 .2.1.4.1.6.3 5 .6 10 1 15 .3 4.3.8 8.6 1.2 12.9 0 .4.1.9.3 1.3.2.2.7.5.9.4.3-.1.5-.5.7-.8.1-.2 0-.4-.1-.7-.6-6-1.2-11.9-1.7-17.9-.4-5.4-.7-10.7-1-16.1-.3-3.9-.7-7.7-.9-11.6-.1-2.1-.2-4.2-.2-6.4 0-1.3.6-1.9 1.9-2.2.4-.1.9-.2 1.3-.2 3-.5 6-.9 9-1.6 3.8-.9 7.6-2.2 11.4-3.2 4.5-1.2 8.9-2.4 13.3-4.1 2.3-.9 4.8-1.4 7.2-2 4.7-1.3 9.4-2.6 14-4 1.9-.6 1.9-.7 1.9 1.3 0 .7-.1 1.4-.1 2.1-.1 3.9-.2 7.9-.2 11.8 0 4.2.1 8.5 0 12.7-.1 4.6-.3 9.1-.4 13.7-.1 3.9-.2 7.7-.2 11.6 0 .3 0 .6.1.9.1.2.4.5.6.6.2 0 .6-.3.6-.5.2-1.1.4-2.2.4-3.4.1-6.5.1-12.9.2-19.4 0-.8.2-1.5.3-2.3 0-.1.1-.3.2-.3s.3.1.4.2c.4 1.1.9 2.1 1.1 3.2.9 3.8 1.8 7.7 2.6 11.5.1.6.3 1.1 1 1s.7-.7.6-1.2c0-.1-.1-.3-.1-.4-.6-3-1.2-6.1-2-9.1-.6-2.3-1.5-4.6-2.2-6.9-.5-1.5-.5-1.6 1.1-2.1 2.7-.9 5.4-1.6 8-2.5 1.3-.4 1.5-.3 1.5 1.3-.1 3.5 0 7-.2 10.5-.1 2.4-.1 4.9-.5 7.3-.6 3.8-1.5 7.6-2.2 11.4-.1.6-.3 1.2-.2 1.8 0 .3 1.1.5 1.1.3.4-1.2.7-2.5 1.2-3.7.2-.6-.1-1.5.8-1.9.1.7.2 1.3.2 2 0 .3-.1.6-.1.9-.1.7-.4 1.6.6 1.9.7.2 1-.4 1-1.9 0-.2 0-.5 0-.7 0-3.7-.1-7.4 0-11.2 0-1 .2-2.1.5-3.1.8-2.9 1.9-5.6 3.4-8.2.2-.4.5-.8.6-1.2 0-.2-.1-.6-.3-.8-.2-.1-.7-.1-.8.1-.5.6-1 1.2-1.3 1.8-.5.9-.9 1.8-1.3 2.7-.1.2-.3.3-.5.5-.1-.2-.4-.5-.4-.7 0-1.7-.1-3.3 0-5 .2-4 .5-8 .7-12 .1-2.7 0-5.5 0-8.2 0-1.1.2-1.1 1.2-.9s2.1.4 3.1.5c1.6.1 1.8.2 1.9 1.9v.9c0 4.4.1 8.8.1 13.2v24.8c0 1.4 0 2.7.1 4.1.1.9.6 1.5 1.2 1.3 1-.2.8-1 .6-1.6-.7-3.3-.5-6.7-.4-10 .1-4.1.4-8.2.3-12.3 0-7.3-.2-14.6-.4-21.9 0-1.8 0-2 1.8-2.2 3.5-.6 6.8-1.7 10-2.9.4-.2.9-.3 1.3-.4 2.2-.3 4.3-.8 6.5-1 2.8-.3 5.5-1.2 8.2-2 4-1.2 8-2.3 12.1-3.4 2.3-.6 4.6-1.1 6.9-1.6 3.6-.8 7.1-1.5 10.7-2.2 1.4-.3 1.5-.1 1.4 1.2-.5 4.5-1.2 9-1.7 13.6-.3 3.1-.6 6.2-.9 9.3-.5 5.3-1 10.6-1.4 15.9 0 .3-.1.6 0 .9s.4.8.7.8c.4 0 .9-.2 1.1-.6s.2-1 .2-1.5c.1-2.1 0-4.3.2-6.4.4-4.8 1-9.5 1.5-14.2.4-3.5.9-7.1 1.4-10.6.4-3.1.7-6.2 1.3-9.2.7-2.6-.3-4.3-1.9-5.8z" fill-rule="evenodd"/><path d="m571.2 286.5c0 1.1-.3 1.5-1.6 1.3-1.9-.3-3.8-.8-5.7-1.3-2.8-.7-5.6-1.4-8.4-2-.9-.2-2-.3-2.1-1.4 0-1 .4-2 .7-3 0-.2.6-.3.8-.2s.6.4.5.6c-.4 2.2 1.2 2.5 2.7 2.9 2.5.7 4.9 1.5 7.4 2.1 1.5.3 3.1.9 4.6-.1.7-.5 1.1 0 1.1 1.1z" fill-rule="evenodd"/><path d="m570.9 328.1c.8.2.8.6.7 1.3s-.4 1-1 1c-.5 0-.7-.3-.8-1.1s.3-1.4 1.1-1.2z" fill-rule="evenodd"/><path d="m566 321.5c-.1.8-1.1.8-1.5.8-.3 0-.8-.2-.8-.8s.5-1 .9-1c.3-.1 1.5.1 1.4 1z" fill-rule="evenodd"/><path d="m559.2 268.2c-.1.6-.2.9-.9.8s-.9-.6-1-1c-.2-.4.2-.9.7-.8.4.1 1.3.4 1.2 1z" fill-rule="evenodd"/><path d="m572.6 276.1c-1.1 0-1-.8-1-1.4 0-.5.7-.8 1-.8.6-.1.9.4.8 1 0 .6.3 1.2-.8 1.2z" fill-rule="evenodd"/><path d="m479.8 258.7c0-.1-.1-.4.1-.7-.1-2 1.5-.6 1.5-.2 0 1.5 1 1.9 2.3 2 1.7.1 3.5.2 5.2.4 1.5.1 3 .2 4.4 1.1.2.1.3.6.3.7-.1.2-.5.4-.7.4-3.6-1.2-7.4-.5-11-1.2-2-.3-2.2-.5-2.1-2.5z" fill-rule="evenodd"/><path d="m482.3 245.6c.7-.1.7.6.8.9.1.5-.1.9-.7.9-.3 0-.8-.4-.8-.6.1-.3-.1-1.1.7-1.2z" fill-rule="evenodd"/><path d="m495.6 248.8c0 .5-.8.6-1.1.5-.2-.1-.6-.5-.5-.8 0-.2.2-1 .8-1 .6.2.8.8.8 1.3z" fill-rule="evenodd"/><path d="m454.9 238.7c-1.9 0-2-.1-2.3-1.8-.1-.7-.3-1.3-.3-2 0-.4.4-.9.7-1 .2-.1.8.3 1 .6.4.6.5 1.6 1.1 1.9.8.3 1.8.2 2.7.1 1.1 0 2.1-.2 3.2-.2.2 0 .5.3.7.4-.2.2-.3.6-.5.6-2.2.5-4.3.9-6.3 1.4z" fill-rule="evenodd"/><path d="m453 223.6c0 .7-.6 1.5-1.2 1.4-.7 0-1.1-.5-1.1-1.2-.1-.6.4-1.2 1-1.3.7.1 1.3.6 1.3 1.1z" fill-rule="evenodd"/><path d="m478.9 221.8c.1.9-.7 1.6-1.3 1.5-.3-.1-.6-.4-.7-.7-.2-.8.4-1.6 1-1.5.3.1.7.5 1 .7z" fill-rule="evenodd"/><path d="m608.1 274.1c0 1.1-.3 1.4-1.3 1.3-1.5-.1-3-.3-4.5-.5-.5-.1-.8-.5-.7-1 .1-.3.5-.7.7-.7.7 0 1.5.1 2.2.1s1.4.2 2.1-.5c.7-.8 1.3-.5 1.4.5.1.3.1.5.1.8z" fill-rule="evenodd"/><path d="m598.4 260.7c.2.6-.5 1.2-1.1 1.1-.5-.1-1.1-.3-.9-1 .1-.4.7-.8 1.1-.8.3 0 .7.1.9.7z" fill-rule="evenodd"/><path d="m610.2 265.1c-.8 0-.8-.7-.8-1s.3-.9.6-1c.5-.2 1.4.5 1.2.9s-.2 1.1-1 1.1z" fill-rule="evenodd"/><path d="m531.6 303.3c.1.7-.4 1.2-1 1.1-.7-.2-1.5-.4-2.1-.7-3.6-2-7.6-3-11.5-4.1-1.9-.5-2-.7-1.6-2.7.1-.5 0-2.5.9-2.3.9.1.9.6.8.9-.4 2 .9 2.6 2.5 3.1 3.2 1 6.3 2.1 9.3 3.6.6.3 1.3.3 2 .5.2.1.5.4.7.6z" fill-rule="evenodd"/><path d="m517.1 284.3c.6-.1 1.3.6 1.3 1.3 0 .6-.7 1.2-1.2 1-.7-.2-1-.8-.9-1.4.1-.4.2-.8.8-.9z" fill-rule="evenodd"/><path d="m531.7 292.2c0 1-.4.7-.8.8-.6.1-.9-.4-.9-1s.4-1.1 1-1c.3.1.7.2.7 1.2z" fill-rule="evenodd"/><path d="m617 325.8c-.2.2-.6.5-1 .7-.5.1-1-.5-1-1.1s.3-1 1-1c.6-.1 1 .5 1 1.4z" fill-rule="evenodd"/><path d="m609.2 315c.9-.1 1.3.7 1.2 1.3s-.6.8-1.2.7c-.6 0-.9-1.8 0-2z" fill-rule="evenodd"/><path d="m309.9 274.5c-.2.2-.5.6-.8.6-.7.1-1.2-.3-1.2-1 0-.4.4-.8.7-1 .5-.3 1.2.5 1.3 1.4z" fill-rule="evenodd"/><path d="m327.6 268.4c0 1-.7 1.9-1.4 1.7-.3-.1-.7-.5-.8-.9-.1-.6.6-1.5 1.1-1.4s.9.4 1.1.6z" fill-rule="evenodd"/><path d="m306.7 288.4c1.6.6 3.3.6 4.9 1.2-.2.4-.3.9-.5 1.3-1.5-.8-3.2-1.2-4.7-2.1.1 0 .2-.2.3-.4zm6 .4c-.7-.3-1.8-1.1-2.9-1.4-.9-.2-2-.6-2.7-.7-.6-.1-.8.4-1 .5 0 0-.1.1-.1.1-.1.2-.2.4-.3.6-.2.3-.4.6-.6 1-.2.3 0 .7.2.9 1.8 1.3 4.1 1.6 5.9 2.8.4.2.8 0 .9-.4.3-.9.6-1.7.9-2.6 0-.4-.1-.7-.3-.8z"/></g></svg>