<svg xmlns="http://www.w3.org/2000/svg" version="1.0" preserveAspectRatio="xMidYMid meet" viewBox="0.5 0 953.03 1280.5">
<metadata>
Created by potrace 1.15, written by Peter Selinger 2001-2017
</metadata>
<g transform="translate(0.000000,1280.000000) scale(0.100000,-0.100000)" fill="#000000" stroke="none">
<path d="M4010 12760 c-107 -67 -170 -73 -252 -28 -57 32 -109 21 -220 -46 -79 -47 -104 -57 -163 -65 -55 -7 -93 -20 -177 -65 -82 -42 -118 -56 -150 -56 -68 0 -100 -27 -152 -127 -48 -94 -72 -115 -139 -127 -50 -9 -103 -62 -147 -149 -31 -58 -39 -67 -63 -67 -44 0 -63 -15 -116 -93 -27 -40 -71 -93 -98 -119 -80 -77 -162 -234 -163 -310 0 -58 -17 -88 -90 -163 -63 -66 -69 -75 -75 -127 -11 -86 20 -201 75 -277 30 -43 25 -73 -25 -145 -41 -61 -45 -71 -45 -127 0 -76 14 -102 107 -207 40 -45 73 -86 73 -90 -1 -4 -7 -18 -15 -32 -34 -60 -9 -145 65 -215 136 -131 231 -227 227 -231 -2 -3 -27 4 -55 15 -124 49 -241 45 -340 -11 -105 -59 -150 -165 -159 -369 -5 -115 -4 -134 21 -218 30 -106 71 -191 131 -276 85 -119 133 -146 301 -171 60 -9 112 -21 116 -28 4 -6 8 -50 8 -98 0 -48 5 -99 11 -115 6 -15 17 -64 25 -107 9 -44 25 -98 36 -120 12 -23 42 -91 68 -153 61 -143 117 -234 250 -408 154 -200 437 -472 595 -572 57 -36 54 -39 -56 -47 -82 -6 -443 -65 -549 -90 -241 -56 -413 -102 -484 -131 -134 -54 -335 -158 -457 -238 -63 -40 -136 -86 -164 -102 -153 -88 -523 -437 -663 -625 -109 -146 -270 -428 -323 -565 -44 -115 -99 -246 -124 -295 -12 -25 -39 -94 -60 -155 -20 -60 -55 -145 -76 -188 l-39 -78 87 -89 c49 -48 94 -89 101 -92 11 -3 9 -15 -7 -56 -67 -170 -148 -530 -161 -717 -5 -66 -18 -237 -30 -380 -34 -400 -17 -733 46 -925 43 -131 180 -354 287 -467 76 -81 128 -109 278 -149 111 -31 157 -38 269 -43 107 -5 142 -10 163 -24 18 -12 26 -24 23 -35 -14 -47 -25 -187 -31 -367 -3 -110 -12 -252 -20 -315 -8 -63 -26 -206 -40 -318 -14 -111 -35 -246 -46 -300 -11 -53 -23 -141 -26 -195 l-6 -98 33 3 c44 4 72 56 72 130 -1 57 10 122 35 216 13 49 22 66 40 73 16 6 27 22 35 55 8 28 22 53 35 61 34 22 44 72 53 253 5 91 15 284 24 430 9 146 13 284 10 307 -6 38 -3 46 25 74 30 29 34 31 89 25 84 -8 204 -16 522 -32 157 -8 364 -21 460 -29 96 -8 276 -19 400 -25 443 -20 610 -30 673 -40 35 -5 133 -14 218 -19 85 -6 179 -15 209 -21 30 -6 127 -15 216 -19 115 -7 170 -14 192 -25 33 -17 52 -43 52 -71 0 -10 11 -30 24 -46 13 -15 36 -61 51 -101 69 -182 162 -331 281 -453 115 -118 425 -385 473 -408 46 -22 46 -22 45 -72 0 -27 -3 -77 -7 -110 -3 -33 -9 -108 -12 -166 l-8 -106 31 -34 30 -34 26 24 c37 35 45 75 48 251 4 197 1 194 132 184 69 -5 110 -2 163 10 163 37 302 103 363 172 46 53 153 280 204 434 61 187 69 271 71 800 2 428 15 652 45 745 5 17 21 127 35 245 29 246 28 243 122 255 32 4 83 17 113 30 30 12 85 32 121 44 87 28 152 71 168 109 10 25 10 38 -4 78 -10 29 -20 109 -25 203 -5 86 -21 244 -35 351 -14 107 -30 247 -36 310 -5 63 -21 192 -35 285 -14 94 -36 251 -49 350 -42 303 -57 350 -183 567 -153 263 -194 304 -542 540 -74 50 -163 116 -197 145 -66 56 -100 78 -278 188 -132 82 -272 185 -339 252 -64 63 -92 127 -102 233 -17 180 -12 194 101 270 162 110 408 340 499 468 30 43 77 104 105 137 61 70 90 129 183 365 102 258 125 327 137 410 5 41 17 109 26 150 9 41 20 140 25 219 5 79 13 148 17 152 6 6 38 5 80 -3 83 -14 164 -1 209 34 35 28 91 147 99 213 4 31 0 106 -10 186 -17 125 -17 142 -1 261 23 179 21 212 -12 283 -32 66 -76 110 -139 139 -39 17 -41 20 -37 55 19 144 28 176 56 216 54 77 45 165 -23 203 -35 20 -35 22 -7 108 31 100 29 156 -7 193 l-28 30 32 36 c64 73 107 195 98 280 -7 72 -42 149 -87 189 -29 26 -35 37 -28 50 17 30 11 111 -11 152 -26 50 -47 74 -92 108 -35 25 -36 29 -41 104 -9 124 -23 156 -103 236 -61 62 -74 82 -103 158 -50 131 -63 146 -172 199 -52 26 -129 55 -170 65 -41 9 -91 28 -110 40 -19 13 -64 31 -98 39 -86 22 -145 13 -219 -33 -55 -35 -62 -37 -143 -37 -82 0 -88 2 -175 47 -84 45 -96 48 -190 54 -85 6 -104 10 -128 30 -35 29 -43 29 -135 4 -39 -11 -80 -20 -91 -20 -10 0 -40 18 -66 39 -58 48 -67 50 -236 60 -125 6 -138 9 -170 33 -51 40 -139 78 -179 78 -24 0 -56 -13 -100 -40z m125 -70 c-45 -11 -77 -11 -70 0 3 6 27 9 53 9 42 -1 44 -2 17 -9z m-530 -70 c-3 -5 -11 -10 -16 -10 -6 0 -7 5 -4 10 3 6 11 10 16 10 6 0 7 -4 4 -10z m663 -36 c69 -14 142 -24 161 -22 23 3 67 -6 121 -24 97 -33 216 -46 275 -29 36 10 41 9 60 -13 29 -35 52 -38 155 -22 108 18 133 11 190 -48 41 -43 94 -61 229 -76 51 -6 97 -13 102 -15 4 -3 40 17 80 45 41 27 86 52 101 55 21 5 62 -10 175 -65 171 -83 236 -110 263 -110 16 0 20 -7 20 -33 0 -19 11 -50 28 -74 15 -22 42 -62 60 -89 17 -26 32 -58 32 -70 0 -15 10 -26 30 -34 39 -16 48 -33 59 -116 9 -58 18 -80 66 -150 40 -58 58 -95 62 -125 3 -24 15 -54 26 -67 16 -17 22 -37 23 -85 1 -34 2 -67 3 -74 0 -6 19 -30 41 -53 97 -101 92 -296 -8 -348 -48 -25 -52 -52 -16 -118 28 -52 28 -53 11 -89 -24 -51 -21 -87 13 -165 17 -38 30 -75 30 -84 0 -8 -13 -30 -29 -48 -25 -29 -29 -43 -34 -120 -7 -109 -31 -164 -100 -237 -69 -72 -103 -132 -123 -214 -16 -62 -15 -73 5 -214 43 -309 51 -557 26 -843 -15 -170 -16 -182 -59 -410 -38 -199 -80 -312 -183 -489 -133 -227 -217 -327 -473 -568 -175 -164 -208 -188 -300 -216 -60 -18 -72 -27 -172 -128 -59 -60 -113 -109 -119 -109 -6 0 -22 -9 -37 -20 -21 -17 -28 -18 -38 -8 -7 8 -18 89 -28 195 -17 191 -44 321 -75 363 -30 41 -77 67 -144 79 -82 14 -153 5 -194 -25 -71 -53 -128 -236 -124 -400 2 -71 -1 -93 -13 -104 -27 -22 -140 -3 -301 52 -247 84 -303 113 -540 282 -212 152 -434 383 -624 650 -163 230 -233 383 -302 661 -36 143 -40 173 -39 279 0 74 -4 124 -11 132 -17 21 -67 16 -134 -12 -82 -35 -179 -42 -231 -18 -98 47 -178 180 -194 327 -13 109 -12 190 1 224 6 15 13 46 15 68 4 46 27 80 75 114 33 22 39 23 179 18 79 -2 159 0 177 5 45 12 66 54 58 116 -11 85 -15 93 -83 167 -152 165 -181 217 -182 323 0 48 -5 60 -45 112 -97 126 -121 207 -90 301 24 70 22 157 -4 304 l-22 119 61 59 c33 33 60 65 60 72 0 7 -9 24 -20 38 -43 55 -21 121 79 231 36 40 86 108 110 152 25 43 60 102 78 130 33 51 34 51 76 47 55 -7 74 14 89 97 9 46 20 70 41 92 29 28 135 87 187 103 14 4 42 28 64 52 48 54 90 77 206 107 53 15 114 40 151 62 61 38 109 48 154 32 16 -6 39 6 98 48 58 43 88 58 122 62 41 4 48 1 86 -33 49 -44 68 -43 172 11 59 31 117 49 166 53 7 1 70 -11 139 -25z m-963 -74 c-3 -5 -14 -10 -23 -10 -15 0 -15 2 -2 10 20 13 33 13 25 0z m2995 -318 c0 -15 -2 -15 -10 -2 -13 20 -13 33 0 25 6 -3 10 -14 10 -23z m-4203 -1544 c-3 -8 -6 -5 -6 6 -1 11 2 17 5 13 3 -3 4 -12 1 -19z m4618 -708 c17 -11 37 -32 44 -47 14 -31 31 -162 31 -246 0 -31 11 -109 25 -173 14 -64 25 -140 25 -171 0 -85 -18 -107 -137 -164 -56 -27 -105 -49 -107 -49 -3 0 -13 15 -22 33 -21 39 -39 324 -22 345 16 19 24 15 38 -18 7 -17 22 -36 33 -41 16 -9 24 -6 45 14 30 31 42 119 22 167 -26 63 -86 86 -136 54 -13 -9 -28 -14 -31 -10 -7 7 -19 74 -29 166 -5 47 -3 60 18 89 46 67 139 91 203 51z m-4625 -147 c-1 -5 -14 -24 -31 -43 -19 -22 -27 -27 -23 -15 6 18 43 65 51 65 2 0 3 -3 3 -7z m2719 -2388 c69 -35 87 -109 125 -515 15 -157 33 -308 40 -337 9 -35 10 -68 5 -100 -15 -90 -22 -435 -10 -569 13 -157 40 -247 73 -242 36 5 44 31 30 95 -37 166 -40 205 -33 453 l7 245 35 79 c37 87 69 116 127 116 24 0 42 -9 63 -29 27 -28 29 -34 29 -109 0 -44 -9 -124 -20 -179 -52 -250 -61 -312 -61 -380 0 -82 8 -116 56 -254 75 -215 99 -442 61 -574 -19 -63 -91 -227 -182 -410 -72 -147 -72 -143 11 -475 60 -236 97 -359 135 -455 18 -44 49 -123 70 -175 65 -166 162 -380 283 -630 44 -91 82 -183 85 -205 3 -22 18 -59 33 -84 66 -104 248 -789 298 -1121 49 -321 64 -395 83 -412 61 -54 123 22 93 115 -26 80 -66 275 -63 304 3 27 6 28 68 35 36 3 109 22 164 42 54 20 101 36 104 36 9 0 -7 -359 -18 -430 -33 -198 -128 -375 -270 -499 -118 -105 -176 -129 -335 -143 -175 -14 -182 -11 -353 156 -142 138 -243 257 -266 309 -7 18 -39 72 -69 120 -31 49 -59 98 -63 109 -3 10 -34 61 -67 113 -88 132 -131 210 -173 312 -20 48 -42 99 -50 113 -37 69 -125 276 -190 450 -118 311 -196 619 -268 1055 -41 247 -47 318 -50 565 -4 272 -32 491 -74 575 -8 17 -45 73 -83 126 -76 107 -108 169 -109 214 -1 40 -28 98 -88 187 -63 93 -89 146 -169 337 -94 226 -110 327 -79 502 15 84 31 121 87 194 21 28 48 72 59 98 28 62 47 69 178 61 123 -7 131 -3 152 76 33 125 195 176 282 89 36 -36 53 -36 75 -3 15 24 15 42 5 207 -7 116 -19 213 -32 267 -47 188 -11 493 66 562 46 41 130 46 193 13z m-1129 -318 c0 -2 -17 -22 -37 -43 -50 -53 -131 -202 -145 -267 -6 -28 -8 -95 -6 -149 4 -84 9 -106 37 -163 41 -82 146 -191 218 -225 46 -21 50 -26 38 -40 -7 -8 -22 -36 -33 -61 -11 -25 -33 -61 -50 -80 -62 -72 -71 -108 -72 -289 -1 -116 3 -138 45 -310 50 -199 50 -199 200 -455 108 -184 124 -221 139 -304 10 -59 22 -82 110 -213 l99 -148 9 -372 c5 -205 7 -416 4 -468 -3 -52 -2 -156 3 -230 8 -120 14 -151 54 -275 25 -77 53 -178 62 -225 9 -47 20 -97 25 -113 8 -24 7 -27 -14 -27 -13 0 -43 7 -67 16 -24 8 -143 35 -264 59 -267 53 -403 86 -498 124 -98 38 -155 55 -267 80 -52 12 -117 28 -145 35 -141 39 -321 92 -415 123 -172 57 -269 80 -385 93 -60 6 -157 18 -215 27 -58 8 -172 18 -255 22 -194 9 -227 22 -237 96 -13 96 -7 743 8 840 8 50 23 160 34 245 10 85 24 193 30 240 14 109 76 388 100 454 11 28 30 98 44 156 14 58 48 186 76 285 65 230 140 521 140 540 0 27 -23 16 -71 -34 -33 -34 -50 -62 -55 -88 -4 -21 -25 -78 -47 -128 -87 -198 -149 -354 -176 -445 -69 -225 -159 -579 -181 -705 -7 -38 -14 -80 -16 -91 -7 -40 -34 -37 -139 14 -71 35 -122 53 -175 61 -41 7 -142 34 -224 61 -83 28 -162 50 -176 50 -72 0 -88 61 -44 165 14 33 45 116 69 185 60 176 94 257 172 416 61 124 102 193 295 499 81 129 309 373 398 426 30 18 98 63 151 101 53 38 134 86 180 108 46 22 121 59 166 84 45 24 103 52 130 62 26 10 75 33 108 50 33 18 119 53 191 77 72 25 152 55 178 67 101 46 191 61 441 74 241 13 455 19 455 13z m106 -154 c-4 -43 -12 -112 -18 -153 -32 -219 -11 -317 90 -416 34 -33 62 -66 62 -72 0 -13 -32 -32 -53 -32 -8 0 -36 17 -62 38 -103 80 -145 125 -178 191 -30 62 -32 71 -30 164 3 112 14 145 92 260 47 70 72 96 95 97 4 0 5 -35 2 -77z m294 12 c41 -19 104 -43 140 -54 254 -75 262 -80 279 -196 6 -42 11 -102 11 -134 0 -74 -14 -89 -69 -72 -111 33 -212 -21 -281 -151 -27 -51 -35 -58 -53 -52 -37 12 -99 59 -170 131 -94 95 -94 106 -32 388 12 53 25 86 38 96 20 16 20 18 3 43 -37 58 10 58 134 1z m1245 -112 c3 -10 9 -47 12 -82 6 -60 5 -64 -13 -59 -127 38 -151 42 -180 29 -16 -7 -41 -30 -56 -52 -45 -63 -48 -58 -52 84 -1 21 2 22 91 22 l91 0 38 38 c41 41 58 46 69 20z m214 -427 c141 -125 509 -370 701 -466 126 -63 280 -199 390 -344 169 -221 213 -294 265 -431 67 -176 81 -258 100 -555 8 -124 26 -362 40 -530 32 -389 42 -570 32 -570 -5 0 -58 14 -118 32 l-109 32 -157 -12 c-180 -13 -437 -3 -618 25 -61 9 -205 19 -325 22 l-215 6 2 125 c3 121 11 200 33 329 18 107 40 293 40 347 0 28 5 65 11 82 18 52 -27 98 -59 60 -19 -24 -51 -193 -62 -328 -30 -369 -42 -460 -60 -460 -12 0 -27 52 -40 134 -18 113 -62 271 -125 446 -32 87 -30 144 9 278 l23 81 -21 4 c-18 3 -16 6 15 21 33 17 41 31 88 143 81 194 94 251 95 433 1 139 -1 161 -22 215 -12 33 -39 130 -59 215 -49 212 -51 329 -5 513 18 71 32 139 32 151 0 13 5 37 11 55 13 37 3 41 108 -53z m-4621 -1766 c24 -11 102 -35 175 -54 73 -18 174 -50 226 -69 73 -27 99 -33 114 -26 47 26 59 -17 32 -109 -9 -28 -18 -73 -20 -99 -3 -26 -7 -59 -10 -73 -3 -14 -16 -114 -30 -223 -29 -231 -34 -461 -11 -470 23 -9 42 -55 55 -132 7 -38 15 -83 18 -98 7 -40 57 -94 113 -122 25 -13 91 -35 145 -50 54 -14 101 -28 105 -30 3 -2 96 -22 205 -44 110 -22 227 -49 261 -59 33 -11 110 -30 170 -42 60 -12 136 -31 170 -41 34 -10 117 -31 185 -45 68 -14 171 -41 229 -59 58 -18 188 -52 290 -75 102 -22 273 -62 380 -87 107 -25 240 -54 295 -64 55 -10 138 -30 185 -45 62 -18 100 -24 143 -22 55 4 58 3 63 -21 37 -165 111 -403 162 -522 35 -82 61 -162 62 -191 0 -11 -164 -9 -275 3 -49 5 -256 13 -460 18 -264 7 -414 15 -525 30 -229 29 -465 49 -740 61 -135 6 -297 15 -360 20 -63 5 -214 14 -336 20 -122 6 -281 20 -355 30 -74 11 -173 20 -220 20 -175 0 -330 31 -396 79 -75 54 -156 208 -235 446 -22 66 -48 142 -59 169 -46 116 -54 194 -54 506 0 179 5 328 12 380 7 47 17 146 23 220 6 74 17 164 25 200 8 36 28 155 46 265 22 144 41 226 65 291 19 51 34 97 34 102 0 12 28 31 45 31 6 1 29 -8 53 -19z m6169 -232 c-3 -8 -6 -5 -6 6 -1 11 2 17 5 13 3 -3 4 -12 1 -19z m-5550 -560 c-3 -8 -6 -5 -6 6 -1 11 2 17 5 13 3 -3 4 -12 1 -19z m0 -125 c-3 -10 -5 -4 -5 12 0 17 2 24 5 18 2 -7 2 -21 0 -30z m4733 -267 c325 -5 356 -7 372 -24 32 -31 32 -81 0 -243 -44 -223 -63 -365 -70 -528 l-7 -144 -32 52 c-24 37 -33 64 -33 94 0 81 -54 133 -171 163 -77 20 -210 14 -279 -12 -154 -57 -195 -52 -237 29 -15 29 -44 90 -64 137 -20 47 -77 164 -126 260 -50 96 -92 186 -95 200 l-4 25 195 -2 c108 -1 356 -4 551 -7z m725 -51 c36 -13 84 -35 106 -48 l39 -24 -23 -20 c-12 -11 -42 -27 -67 -36 -60 -21 -228 -67 -244 -67 -10 0 -9 22 6 101 9 55 20 104 23 110 11 17 94 9 160 -16z m-680 -690 c101 -27 105 -48 17 -81 -26 -10 -62 -30 -79 -45 -18 -16 -54 -34 -80 -42 -88 -26 -212 -50 -228 -43 -21 8 -54 83 -55 122 0 49 18 64 110 83 107 24 238 26 315 6z m106 -184 c34 -35 36 -54 9 -99 -23 -37 -55 -53 -160 -78 -41 -10 -118 -30 -170 -45 -114 -33 -122 -30 -124 56 l-1 58 86 23 c101 27 237 77 265 99 30 23 63 18 95 -14z m140 -144 c-10 -9 -11 -8 -5 6 3 10 9 15 12 12 3 -3 0 -11 -7 -18z m-118 -88 c77 -40 90 -100 32 -155 -47 -44 -118 -69 -256 -87 -63 -9 -122 -19 -131 -22 -12 -5 -17 3 -23 32 -4 21 -10 43 -15 48 -4 6 -10 23 -14 38 -11 48 32 80 144 106 52 13 106 29 120 36 31 17 113 19 143 4z m52 -301 c56 -67 41 -143 -40 -195 -71 -47 -166 -76 -226 -71 -26 3 -52 1 -58 -5 -17 -17 -39 35 -57 136 -13 73 -15 100 -6 109 9 9 17 7 32 -7 11 -10 20 -13 20 -8 0 15 20 21 130 43 52 10 106 23 120 28 34 12 56 5 85 -30z m-1755 -101 c0 -20 -25 1 -28 24 -2 23 -2 23 13 5 8 -11 15 -24 15 -29z"/>
<path d="M4521 12427 c-18 -23 10 -51 42 -43 34 8 35 34 1 46 -32 12 -29 13 -43 -3z"/>
<path d="M4123 12421 c-48 -12 -96 -44 -121 -81 -36 -53 -13 -57 74 -11 42 23 81 41 85 41 4 0 15 -7 23 -16 14 -14 13 -18 -14 -41 -33 -28 -39 -63 -14 -87 25 -26 45 -33 110 -40 54 -6 62 -4 82 17 12 12 23 34 24 47 3 27 2 27 -89 14 -49 -7 -51 -3 -28 63 8 23 12 49 9 57 -11 28 -91 49 -141 37z"/>
<path d="M3720 12392 c-19 -16 -21 -22 -11 -40 14 -26 24 -28 41 -7 7 8 22 15 34 15 29 0 61 24 52 38 -11 19 -91 14 -116 -6z"/>
<path d="M4843 12382 c-35 -11 -63 -40 -63 -65 0 -43 43 -64 55 -27 10 32 39 42 85 30 22 -6 40 -15 40 -20 0 -5 -13 -25 -30 -43 -16 -19 -30 -45 -30 -57 0 -21 3 -22 50 -17 53 6 164 55 163 72 -1 6 -14 15 -30 20 -16 6 -44 27 -62 47 -41 46 -126 75 -178 60z"/>
<path d="M3309 12230 c-91 -16 -170 -64 -190 -117 -20 -52 21 -59 62 -10 l27 32 11 -27 c13 -35 34 -35 86 -3 50 31 72 31 96 3 16 -20 20 -21 29 -8 15 23 12 93 -6 118 -16 24 -35 25 -115 12z"/>
<path d="M5580 12222 c-32 -13 -46 -24 -48 -40 -5 -33 39 -47 83 -26 77 36 128 -27 65 -80 -17 -14 -38 -26 -46 -26 -20 0 -17 -24 6 -45 17 -15 30 -17 98 -11 53 5 87 3 105 -5 22 -10 30 -8 56 10 55 39 37 61 -49 61 -46 0 -48 1 -54 32 -10 50 -56 109 -101 129 -49 23 -58 23 -115 1z"/>
<path d="M3620 12084 c-37 -31 -70 -93 -70 -129 0 -43 40 -29 65 21 34 71 42 77 75 53 59 -44 108 4 56 56 -34 34 -84 34 -126 -1z"/>
<path d="M2702 11759 c-38 -42 -48 -50 -112 -92 -40 -26 -72 -56 -84 -78 -19 -35 -19 -36 0 -74 18 -37 48 -65 58 -55 2 3 -1 24 -7 47 -9 37 -9 45 8 63 10 11 41 27 68 35 65 19 93 38 112 76 34 65 0 127 -43 78z"/>
<path d="M6208 11768 c-16 -5 -28 -13 -28 -17 0 -16 99 -148 135 -180 30 -26 43 -31 64 -26 50 12 48 24 -14 79 -52 47 -58 55 -46 70 7 9 19 16 25 16 7 0 23 11 36 25 l23 24 -27 11 c-34 13 -132 12 -168 -2z"/>
<path d="M3065 11671 c-84 -38 -134 -103 -121 -156 9 -34 20 -31 34 9 17 46 75 96 112 96 24 0 30 -6 42 -42 17 -51 34 -59 49 -21 20 54 -14 133 -58 133 -10 0 -36 -9 -58 -19z"/>
<path d="M6440 11253 c-54 -20 -66 -75 -25 -111 30 -26 31 -37 5 -80 -24 -40 -26 -87 -4 -96 26 -10 114 83 114 120 0 30 -21 69 -47 91 -13 10 -12 15 2 37 25 38 3 57 -45 39z"/>
<path d="M2383 11088 c-24 -12 -49 -61 -38 -77 3 -6 -3 -21 -14 -33 -25 -26 -28 -83 -6 -135 16 -39 30 -53 54 -53 11 0 12 10 8 44 -6 44 -6 45 28 56 60 20 70 73 20 106 l-24 16 21 28 c18 24 19 32 8 45 -14 17 -26 18 -57 3z"/>
<path d="M5509 10501 c-22 -23 -29 -39 -29 -69 0 -60 17 -69 145 -75 118 -6 200 -25 281 -63 59 -28 86 -30 104 -9 9 11 8 20 -9 44 -63 88 -175 149 -330 180 -130 26 -127 27 -162 -8z"/>
<path d="M2491 10423 c-19 -69 -14 -98 29 -152 22 -28 43 -51 46 -51 20 0 74 32 74 44 0 15 -55 66 -72 66 -6 0 0 8 12 18 18 14 20 22 11 43 -10 29 -56 69 -77 69 -7 0 -18 -17 -23 -37z"/>
<path d="M3730 10359 c-144 -83 -203 -130 -257 -202 -78 -106 -130 -237 -87 -220 8 3 48 47 89 99 78 97 116 126 255 191 89 41 140 86 140 125 0 30 -15 68 -28 68 -4 0 -54 -28 -112 -61z"/>
<path d="M5590 9811 c-79 -8 -107 -22 -126 -66 -29 -71 31 -131 120 -120 28 3 63 14 78 23 48 28 74 108 46 144 -18 22 -42 26 -118 19z"/>
<path d="M4887 9776 c-24 -26 -52 -100 -43 -114 3 -5 17 -69 31 -143 43 -217 164 -561 234 -664 32 -46 28 -98 -10 -129 -17 -14 -43 -29 -57 -32 -15 -3 -85 -24 -157 -47 -108 -35 -132 -46 -144 -69 -18 -32 -6 -81 21 -86 10 -2 43 8 75 21 32 14 103 35 158 48 114 26 210 71 240 112 15 22 20 44 20 96 0 63 -4 76 -54 172 -223 429 -250 503 -258 716 -6 140 -16 162 -56 119z"/>
<path d="M3892 9723 c-15 -11 -25 -33 -29 -59 -4 -35 -1 -46 23 -73 56 -63 153 -46 190 33 19 39 13 81 -14 95 -9 5 -46 12 -82 16 -56 6 -69 4 -88 -12z"/>
<path d="M2258 9430 c-10 -6 -22 -19 -28 -30 -9 -16 -1 -23 55 -55 36 -20 94 -58 130 -86 35 -27 74 -49 85 -49 22 0 80 50 80 69 0 6 -8 18 -17 26 -78 67 -104 86 -142 106 -49 25 -137 35 -163 19z"/>
<path d="M5303 8093 c-12 -26 -33 -46 -63 -61 -42 -22 -51 -23 -150 -16 -222 16 -286 4 -508 -95 -186 -84 -322 -121 -440 -121 -93 0 -131 -51 -60 -81 50 -21 256 2 333 36 33 14 83 35 110 45 28 10 97 38 155 63 155 64 204 72 353 57 154 -16 202 -7 287 56 54 39 60 48 60 80 0 78 -45 100 -77 37z"/>
<path d="M5052 7770 c-31 -41 -75 -49 -241 -44 -154 4 -191 -4 -191 -45 0 -35 46 -44 220 -46 182 -2 215 6 250 55 26 36 26 86 2 99 -15 8 -23 4 -40 -19z"/>
<path d="M8235 10599 c-153 -20 -288 -93 -380 -205 -81 -100 -90 -124 -90 -244 0 -58 6 -124 13 -148 13 -41 16 -44 135 -104 140 -70 223 -101 249 -92 20 6 38 36 68 118 37 99 115 146 242 146 143 0 285 -77 340 -184 31 -59 37 -180 12 -232 -22 -46 -82 -107 -138 -139 -50 -29 -208 -52 -421 -63 -134 -7 -156 -11 -207 -36 -90 -43 -143 -98 -184 -191 -56 -127 -64 -154 -64 -215 0 -48 5 -64 25 -88 34 -40 82 -50 263 -55 153 -5 153 -5 169 19 10 16 14 37 10 63 l-5 39 97 12 c347 43 579 105 799 211 131 63 240 163 296 269 92 174 95 443 9 626 -31 68 -119 161 -208 221 -179 120 -538 244 -792 273 -104 11 -139 11 -238 -1z m385 -143 c123 -18 307 -74 409 -125 34 -18 103 -66 154 -109 50 -43 107 -88 124 -101 66 -46 123 -192 124 -315 2 -324 -123 -483 -456 -584 -184 -56 -445 -92 -669 -92 -79 0 -118 -17 -136 -59 -11 -28 -11 -44 1 -91 3 -11 -3 -14 -21 -12 -14 1 -71 5 -128 8 -97 6 -103 8 -108 30 -16 63 26 181 87 248 40 44 56 54 91 60 152 22 266 35 353 41 144 9 186 19 293 73 170 84 214 155 226 360 7 119 -13 177 -87 258 -61 67 -94 89 -207 138 -156 68 -305 59 -450 -27 -49 -29 -57 -39 -73 -87 -29 -87 -30 -88 -138 -54 -89 28 -159 103 -159 172 0 103 114 227 250 271 94 30 294 29 520 -3z"/>
<path d="M635 8735 c-168 -26 -362 -113 -449 -200 -133 -133 -173 -249 -179 -521 l-2 -122 31 -38 c67 -83 156 -102 249 -53 28 15 85 36 128 48 174 47 227 105 173 186 -69 102 -51 246 37 291 47 25 167 15 232 -18 84 -44 135 -110 135 -176 0 -74 -19 -101 -167 -250 -79 -80 -156 -161 -171 -181 -14 -20 -41 -50 -58 -67 -18 -17 -36 -44 -39 -60 -4 -16 -18 -61 -31 -100 -14 -40 -28 -97 -31 -127 -5 -51 -3 -58 22 -82 25 -25 31 -27 86 -22 45 4 79 16 146 53 48 26 112 55 142 64 61 18 76 36 86 103 5 29 12 40 33 48 75 30 105 52 202 149 88 87 113 120 152 195 134 261 117 528 -46 690 -68 68 -164 132 -234 156 -135 47 -293 59 -447 34z m354 -148 c82 -29 266 -135 306 -177 35 -37 75 -151 75 -216 0 -173 -202 -466 -410 -594 -86 -53 -95 -62 -93 -87 3 -37 -28 -68 -85 -83 -26 -7 -68 -24 -94 -37 -26 -12 -50 -23 -53 -23 -3 0 -5 24 -5 54 0 48 5 60 44 112 48 65 97 113 196 193 184 149 263 258 264 364 0 66 -18 156 -39 198 -27 52 -109 122 -189 163 l-75 38 -108 -4 c-128 -5 -177 -23 -252 -93 -62 -58 -91 -115 -91 -181 0 -49 12 -74 76 -161 15 -21 15 -25 -1 -49 -9 -14 -38 -35 -63 -45 -26 -11 -59 -27 -74 -35 -57 -31 -124 -11 -166 50 -35 51 -49 188 -27 263 48 165 240 316 470 369 40 9 104 12 190 10 109 -3 142 -7 204 -29z"/>
<path d="M7905 8633 c-75 -39 -125 -114 -125 -185 0 -61 47 -140 104 -173 89 -52 156 -43 205 29 34 49 81 163 81 196 0 35 -46 106 -84 129 -41 26 -136 28 -181 4z m136 -152 c34 -35 36 -59 8 -95 -22 -28 -52 -33 -96 -14 -30 13 -83 57 -83 70 0 4 13 21 30 38 41 42 99 42 141 1z"/>
<path d="M832 7151 c-67 -23 -93 -48 -131 -125 -34 -68 -33 -91 5 -142 28 -38 109 -92 151 -100 65 -13 177 61 214 141 46 100 -2 205 -109 235 -50 14 -68 12 -130 -9z m148 -121 c38 -38 22 -100 -32 -120 -73 -27 -97 -29 -120 -10 -28 22 -30 85 -5 123 16 24 23 27 77 27 47 0 64 -4 80 -20z"/>
</g>
</svg>